%TF.GenerationSoftware,KiCad,Pcbnew,(5.1.10-1-10_14)*%
%TF.CreationDate,2022-01-16T19:20:25-08:00*%
%TF.ProjectId,Reflow_Heater,5265666c-6f77-45f4-9865-617465722e6b,rev?*%
%TF.SameCoordinates,Original*%
%TF.FileFunction,Legend,Bot*%
%TF.FilePolarity,Positive*%
%FSLAX46Y46*%
G04 Gerber Fmt 4.6, Leading zero omitted, Abs format (unit mm)*
G04 Created by KiCad (PCBNEW (5.1.10-1-10_14)) date 2022-01-16 19:20:25*
%MOMM*%
%LPD*%
G01*
G04 APERTURE LIST*
%ADD10C,0.120000*%
%ADD11C,0.750000*%
G04 APERTURE END LIST*
D10*
X51000000Y-76000000D02*
X51000000Y-154000000D01*
X51000000Y-76000000D02*
X100000000Y-76000000D01*
X100000000Y-154000000D02*
X100000000Y-76000000D01*
X100000000Y-154000000D02*
X51000000Y-154000000D01*
D11*
X66107142Y-146142857D02*
X65892857Y-145928571D01*
X65250000Y-145714285D01*
X64821428Y-145714285D01*
X64178571Y-145928571D01*
X63750000Y-146357142D01*
X63535714Y-146785714D01*
X63321428Y-147642857D01*
X63321428Y-148285714D01*
X63535714Y-149142857D01*
X63750000Y-149571428D01*
X64178571Y-150000000D01*
X64821428Y-150214285D01*
X65250000Y-150214285D01*
X65892857Y-150000000D01*
X66107142Y-149785714D01*
X67821428Y-147000000D02*
X69964285Y-147000000D01*
X67392857Y-145714285D02*
X68892857Y-150214285D01*
X70392857Y-145714285D01*
X71892857Y-150214285D02*
X71892857Y-146571428D01*
X72107142Y-146142857D01*
X72321428Y-145928571D01*
X72750000Y-145714285D01*
X73607142Y-145714285D01*
X74035714Y-145928571D01*
X74250000Y-146142857D01*
X74464285Y-146571428D01*
X74464285Y-150214285D01*
X75964285Y-150214285D02*
X78535714Y-150214285D01*
X77250000Y-145714285D02*
X77250000Y-150214285D01*
X80035714Y-145714285D02*
X80035714Y-150214285D01*
X83035714Y-150214285D02*
X83892857Y-150214285D01*
X84321428Y-150000000D01*
X84750000Y-149571428D01*
X84964285Y-148714285D01*
X84964285Y-147214285D01*
X84750000Y-146357142D01*
X84321428Y-145928571D01*
X83892857Y-145714285D01*
X83035714Y-145714285D01*
X82607142Y-145928571D01*
X82178571Y-146357142D01*
X81964285Y-147214285D01*
X81964285Y-148714285D01*
X82178571Y-149571428D01*
X82607142Y-150000000D01*
X83035714Y-150214285D01*
X86892857Y-145714285D02*
X86892857Y-150214285D01*
X89464285Y-145714285D01*
X89464285Y-150214285D01*
X54535714Y-138214285D02*
X54535714Y-142714285D01*
X54535714Y-140571428D02*
X57107142Y-140571428D01*
X57107142Y-138214285D02*
X57107142Y-142714285D01*
X60107142Y-142714285D02*
X60964285Y-142714285D01*
X61392857Y-142500000D01*
X61821428Y-142071428D01*
X62035714Y-141214285D01*
X62035714Y-139714285D01*
X61821428Y-138857142D01*
X61392857Y-138428571D01*
X60964285Y-138214285D01*
X60107142Y-138214285D01*
X59678571Y-138428571D01*
X59250000Y-138857142D01*
X59035714Y-139714285D01*
X59035714Y-141214285D01*
X59250000Y-142071428D01*
X59678571Y-142500000D01*
X60107142Y-142714285D01*
X63321428Y-142714285D02*
X65892857Y-142714285D01*
X64607142Y-138214285D02*
X64607142Y-142714285D01*
X70607142Y-138428571D02*
X71250000Y-138214285D01*
X72321428Y-138214285D01*
X72750000Y-138428571D01*
X72964285Y-138642857D01*
X73178571Y-139071428D01*
X73178571Y-139500000D01*
X72964285Y-139928571D01*
X72750000Y-140142857D01*
X72321428Y-140357142D01*
X71464285Y-140571428D01*
X71035714Y-140785714D01*
X70821428Y-141000000D01*
X70607142Y-141428571D01*
X70607142Y-141857142D01*
X70821428Y-142285714D01*
X71035714Y-142500000D01*
X71464285Y-142714285D01*
X72535714Y-142714285D01*
X73178571Y-142500000D01*
X75107142Y-142714285D02*
X75107142Y-139071428D01*
X75321428Y-138642857D01*
X75535714Y-138428571D01*
X75964285Y-138214285D01*
X76821428Y-138214285D01*
X77250000Y-138428571D01*
X77464285Y-138642857D01*
X77678571Y-139071428D01*
X77678571Y-142714285D01*
X82392857Y-138214285D02*
X80892857Y-140357142D01*
X79821428Y-138214285D02*
X79821428Y-142714285D01*
X81535714Y-142714285D01*
X81964285Y-142500000D01*
X82178571Y-142285714D01*
X82392857Y-141857142D01*
X82392857Y-141214285D01*
X82178571Y-140785714D01*
X81964285Y-140571428D01*
X81535714Y-140357142D01*
X79821428Y-140357142D01*
X85821428Y-140571428D02*
X84321428Y-140571428D01*
X84321428Y-138214285D02*
X84321428Y-142714285D01*
X86464285Y-142714285D01*
X87964285Y-139500000D02*
X90107142Y-139500000D01*
X87535714Y-138214285D02*
X89035714Y-142714285D01*
X90535714Y-138214285D01*
X94607142Y-138642857D02*
X94392857Y-138428571D01*
X93750000Y-138214285D01*
X93321428Y-138214285D01*
X92678571Y-138428571D01*
X92250000Y-138857142D01*
X92035714Y-139285714D01*
X91821428Y-140142857D01*
X91821428Y-140785714D01*
X92035714Y-141642857D01*
X92250000Y-142071428D01*
X92678571Y-142500000D01*
X93321428Y-142714285D01*
X93750000Y-142714285D01*
X94392857Y-142500000D01*
X94607142Y-142285714D01*
X96535714Y-140571428D02*
X98035714Y-140571428D01*
X98678571Y-138214285D02*
X96535714Y-138214285D01*
X96535714Y-142714285D01*
X98678571Y-142714285D01*
X65107142Y-86142857D02*
X64892857Y-85928571D01*
X64250000Y-85714285D01*
X63821428Y-85714285D01*
X63178571Y-85928571D01*
X62750000Y-86357142D01*
X62535714Y-86785714D01*
X62321428Y-87642857D01*
X62321428Y-88285714D01*
X62535714Y-89142857D01*
X62750000Y-89571428D01*
X63178571Y-90000000D01*
X63821428Y-90214285D01*
X64250000Y-90214285D01*
X64892857Y-90000000D01*
X65107142Y-89785714D01*
X66821428Y-87000000D02*
X68964285Y-87000000D01*
X66392857Y-85714285D02*
X67892857Y-90214285D01*
X69392857Y-85714285D01*
X70892857Y-90214285D02*
X70892857Y-86571428D01*
X71107142Y-86142857D01*
X71321428Y-85928571D01*
X71750000Y-85714285D01*
X72607142Y-85714285D01*
X73035714Y-85928571D01*
X73250000Y-86142857D01*
X73464285Y-86571428D01*
X73464285Y-90214285D01*
X74964285Y-90214285D02*
X77535714Y-90214285D01*
X76250000Y-85714285D02*
X76250000Y-90214285D01*
X79035714Y-85714285D02*
X79035714Y-90214285D01*
X82035714Y-90214285D02*
X82892857Y-90214285D01*
X83321428Y-90000000D01*
X83750000Y-89571428D01*
X83964285Y-88714285D01*
X83964285Y-87214285D01*
X83750000Y-86357142D01*
X83321428Y-85928571D01*
X82892857Y-85714285D01*
X82035714Y-85714285D01*
X81607142Y-85928571D01*
X81178571Y-86357142D01*
X80964285Y-87214285D01*
X80964285Y-88714285D01*
X81178571Y-89571428D01*
X81607142Y-90000000D01*
X82035714Y-90214285D01*
X85892857Y-85714285D02*
X85892857Y-90214285D01*
X88464285Y-85714285D01*
X88464285Y-90214285D01*
X53535714Y-78214285D02*
X53535714Y-82714285D01*
X53535714Y-80571428D02*
X56107142Y-80571428D01*
X56107142Y-78214285D02*
X56107142Y-82714285D01*
X59107142Y-82714285D02*
X59964285Y-82714285D01*
X60392857Y-82500000D01*
X60821428Y-82071428D01*
X61035714Y-81214285D01*
X61035714Y-79714285D01*
X60821428Y-78857142D01*
X60392857Y-78428571D01*
X59964285Y-78214285D01*
X59107142Y-78214285D01*
X58678571Y-78428571D01*
X58250000Y-78857142D01*
X58035714Y-79714285D01*
X58035714Y-81214285D01*
X58250000Y-82071428D01*
X58678571Y-82500000D01*
X59107142Y-82714285D01*
X62321428Y-82714285D02*
X64892857Y-82714285D01*
X63607142Y-78214285D02*
X63607142Y-82714285D01*
X69607142Y-78428571D02*
X70250000Y-78214285D01*
X71321428Y-78214285D01*
X71750000Y-78428571D01*
X71964285Y-78642857D01*
X72178571Y-79071428D01*
X72178571Y-79500000D01*
X71964285Y-79928571D01*
X71750000Y-80142857D01*
X71321428Y-80357142D01*
X70464285Y-80571428D01*
X70035714Y-80785714D01*
X69821428Y-81000000D01*
X69607142Y-81428571D01*
X69607142Y-81857142D01*
X69821428Y-82285714D01*
X70035714Y-82500000D01*
X70464285Y-82714285D01*
X71535714Y-82714285D01*
X72178571Y-82500000D01*
X74107142Y-82714285D02*
X74107142Y-79071428D01*
X74321428Y-78642857D01*
X74535714Y-78428571D01*
X74964285Y-78214285D01*
X75821428Y-78214285D01*
X76250000Y-78428571D01*
X76464285Y-78642857D01*
X76678571Y-79071428D01*
X76678571Y-82714285D01*
X81392857Y-78214285D02*
X79892857Y-80357142D01*
X78821428Y-78214285D02*
X78821428Y-82714285D01*
X80535714Y-82714285D01*
X80964285Y-82500000D01*
X81178571Y-82285714D01*
X81392857Y-81857142D01*
X81392857Y-81214285D01*
X81178571Y-80785714D01*
X80964285Y-80571428D01*
X80535714Y-80357142D01*
X78821428Y-80357142D01*
X84821428Y-80571428D02*
X83321428Y-80571428D01*
X83321428Y-78214285D02*
X83321428Y-82714285D01*
X85464285Y-82714285D01*
X86964285Y-79500000D02*
X89107142Y-79500000D01*
X86535714Y-78214285D02*
X88035714Y-82714285D01*
X89535714Y-78214285D01*
X93607142Y-78642857D02*
X93392857Y-78428571D01*
X92750000Y-78214285D01*
X92321428Y-78214285D01*
X91678571Y-78428571D01*
X91250000Y-78857142D01*
X91035714Y-79285714D01*
X90821428Y-80142857D01*
X90821428Y-80785714D01*
X91035714Y-81642857D01*
X91250000Y-82071428D01*
X91678571Y-82500000D01*
X92321428Y-82714285D01*
X92750000Y-82714285D01*
X93392857Y-82500000D01*
X93607142Y-82285714D01*
X95535714Y-80571428D02*
X97035714Y-80571428D01*
X97678571Y-78214285D02*
X95535714Y-78214285D01*
X95535714Y-82714285D01*
X97678571Y-82714285D01*
M02*
