%TF.GenerationSoftware,KiCad,Pcbnew,(5.1.10-1-10_14)*%
%TF.CreationDate,2022-01-16T21:07:01-08:00*%
%TF.ProjectId,Reflow_Heater,5265666c-6f77-45f4-9865-617465722e6b,rev?*%
%TF.SameCoordinates,Original*%
%TF.FileFunction,Legend,Top*%
%TF.FilePolarity,Positive*%
%FSLAX46Y46*%
G04 Gerber Fmt 4.6, Leading zero omitted, Abs format (unit mm)*
G04 Created by KiCad (PCBNEW (5.1.10-1-10_14)) date 2022-01-16 21:07:01*
%MOMM*%
%LPD*%
G01*
G04 APERTURE LIST*
%ADD10C,0.150000*%
%ADD11C,0.750000*%
%ADD12C,0.120000*%
%ADD13C,0.010000*%
G04 APERTURE END LIST*
D10*
X82666666Y-162222619D02*
X82714285Y-162175000D01*
X82809523Y-162127380D01*
X83047619Y-162127380D01*
X83142857Y-162175000D01*
X83190476Y-162222619D01*
X83238095Y-162317857D01*
X83238095Y-162413095D01*
X83190476Y-162555952D01*
X82619047Y-163127380D01*
X83238095Y-163127380D01*
X84095238Y-162460714D02*
X84095238Y-163127380D01*
X83857142Y-162079761D02*
X83619047Y-162794047D01*
X84238095Y-162794047D01*
X84476190Y-162127380D02*
X84809523Y-163127380D01*
X85142857Y-162127380D01*
X86523809Y-163508333D02*
X86476190Y-163460714D01*
X86380952Y-163317857D01*
X86333333Y-163222619D01*
X86285714Y-163079761D01*
X86238095Y-162841666D01*
X86238095Y-162651190D01*
X86285714Y-162413095D01*
X86333333Y-162270238D01*
X86380952Y-162175000D01*
X86476190Y-162032142D01*
X86523809Y-161984523D01*
X87380952Y-162127380D02*
X86904761Y-162127380D01*
X86857142Y-162603571D01*
X86904761Y-162555952D01*
X87000000Y-162508333D01*
X87238095Y-162508333D01*
X87333333Y-162555952D01*
X87380952Y-162603571D01*
X87428571Y-162698809D01*
X87428571Y-162936904D01*
X87380952Y-163032142D01*
X87333333Y-163079761D01*
X87238095Y-163127380D01*
X87000000Y-163127380D01*
X86904761Y-163079761D01*
X86857142Y-163032142D01*
X87857142Y-163032142D02*
X87904761Y-163079761D01*
X87857142Y-163127380D01*
X87809523Y-163079761D01*
X87857142Y-163032142D01*
X87857142Y-163127380D01*
X88238095Y-162127380D02*
X88857142Y-162127380D01*
X88523809Y-162508333D01*
X88666666Y-162508333D01*
X88761904Y-162555952D01*
X88809523Y-162603571D01*
X88857142Y-162698809D01*
X88857142Y-162936904D01*
X88809523Y-163032142D01*
X88761904Y-163079761D01*
X88666666Y-163127380D01*
X88380952Y-163127380D01*
X88285714Y-163079761D01*
X88238095Y-163032142D01*
X89190476Y-162127380D02*
X89809523Y-162127380D01*
X89476190Y-162508333D01*
X89619047Y-162508333D01*
X89714285Y-162555952D01*
X89761904Y-162603571D01*
X89809523Y-162698809D01*
X89809523Y-162936904D01*
X89761904Y-163032142D01*
X89714285Y-163079761D01*
X89619047Y-163127380D01*
X89333333Y-163127380D01*
X89238095Y-163079761D01*
X89190476Y-163032142D01*
X91190476Y-162127380D02*
X91380952Y-162127380D01*
X91476190Y-162175000D01*
X91571428Y-162270238D01*
X91619047Y-162460714D01*
X91619047Y-162794047D01*
X91571428Y-162984523D01*
X91476190Y-163079761D01*
X91380952Y-163127380D01*
X91190476Y-163127380D01*
X91095238Y-163079761D01*
X91000000Y-162984523D01*
X90952380Y-162794047D01*
X90952380Y-162460714D01*
X91000000Y-162270238D01*
X91095238Y-162175000D01*
X91190476Y-162127380D01*
X92047619Y-163127380D02*
X92047619Y-162127380D01*
X92476190Y-163127380D02*
X92476190Y-162603571D01*
X92428571Y-162508333D01*
X92333333Y-162460714D01*
X92190476Y-162460714D01*
X92095238Y-162508333D01*
X92047619Y-162555952D01*
X92952380Y-163127380D02*
X92952380Y-162460714D01*
X92952380Y-162555952D02*
X93000000Y-162508333D01*
X93095238Y-162460714D01*
X93238095Y-162460714D01*
X93333333Y-162508333D01*
X93380952Y-162603571D01*
X93380952Y-163127380D01*
X93380952Y-162603571D02*
X93428571Y-162508333D01*
X93523809Y-162460714D01*
X93666666Y-162460714D01*
X93761904Y-162508333D01*
X93809523Y-162603571D01*
X93809523Y-163127380D01*
X94238095Y-163079761D02*
X94333333Y-163127380D01*
X94523809Y-163127380D01*
X94619047Y-163079761D01*
X94666666Y-162984523D01*
X94666666Y-162936904D01*
X94619047Y-162841666D01*
X94523809Y-162794047D01*
X94380952Y-162794047D01*
X94285714Y-162746428D01*
X94238095Y-162651190D01*
X94238095Y-162603571D01*
X94285714Y-162508333D01*
X94380952Y-162460714D01*
X94523809Y-162460714D01*
X94619047Y-162508333D01*
X95000000Y-163508333D02*
X95047619Y-163460714D01*
X95142857Y-163317857D01*
X95190476Y-163222619D01*
X95238095Y-163079761D01*
X95285714Y-162841666D01*
X95285714Y-162651190D01*
X95238095Y-162413095D01*
X95190476Y-162270238D01*
X95142857Y-162175000D01*
X95047619Y-162032142D01*
X95000000Y-161984523D01*
X82166666Y-164777380D02*
X81595238Y-164777380D01*
X81880952Y-164777380D02*
X81880952Y-163777380D01*
X81785714Y-163920238D01*
X81690476Y-164015476D01*
X81595238Y-164063095D01*
X82785714Y-163777380D02*
X82880952Y-163777380D01*
X82976190Y-163825000D01*
X83023809Y-163872619D01*
X83071428Y-163967857D01*
X83119047Y-164158333D01*
X83119047Y-164396428D01*
X83071428Y-164586904D01*
X83023809Y-164682142D01*
X82976190Y-164729761D01*
X82880952Y-164777380D01*
X82785714Y-164777380D01*
X82690476Y-164729761D01*
X82642857Y-164682142D01*
X82595238Y-164586904D01*
X82547619Y-164396428D01*
X82547619Y-164158333D01*
X82595238Y-163967857D01*
X82642857Y-163872619D01*
X82690476Y-163825000D01*
X82785714Y-163777380D01*
X83738095Y-163777380D02*
X83833333Y-163777380D01*
X83928571Y-163825000D01*
X83976190Y-163872619D01*
X84023809Y-163967857D01*
X84071428Y-164158333D01*
X84071428Y-164396428D01*
X84023809Y-164586904D01*
X83976190Y-164682142D01*
X83928571Y-164729761D01*
X83833333Y-164777380D01*
X83738095Y-164777380D01*
X83642857Y-164729761D01*
X83595238Y-164682142D01*
X83547619Y-164586904D01*
X83500000Y-164396428D01*
X83500000Y-164158333D01*
X83547619Y-163967857D01*
X83595238Y-163872619D01*
X83642857Y-163825000D01*
X83738095Y-163777380D01*
X84404761Y-163777380D02*
X84642857Y-164777380D01*
X84833333Y-164063095D01*
X85023809Y-164777380D01*
X85261904Y-163777380D01*
X85690476Y-164729761D02*
X85690476Y-164777380D01*
X85642857Y-164872619D01*
X85595238Y-164920238D01*
X87023809Y-164205952D02*
X86928571Y-164158333D01*
X86880952Y-164110714D01*
X86833333Y-164015476D01*
X86833333Y-163967857D01*
X86880952Y-163872619D01*
X86928571Y-163825000D01*
X87023809Y-163777380D01*
X87214285Y-163777380D01*
X87309523Y-163825000D01*
X87357142Y-163872619D01*
X87404761Y-163967857D01*
X87404761Y-164015476D01*
X87357142Y-164110714D01*
X87309523Y-164158333D01*
X87214285Y-164205952D01*
X87023809Y-164205952D01*
X86928571Y-164253571D01*
X86880952Y-164301190D01*
X86833333Y-164396428D01*
X86833333Y-164586904D01*
X86880952Y-164682142D01*
X86928571Y-164729761D01*
X87023809Y-164777380D01*
X87214285Y-164777380D01*
X87309523Y-164729761D01*
X87357142Y-164682142D01*
X87404761Y-164586904D01*
X87404761Y-164396428D01*
X87357142Y-164301190D01*
X87309523Y-164253571D01*
X87214285Y-164205952D01*
X88023809Y-163777380D02*
X88119047Y-163777380D01*
X88214285Y-163825000D01*
X88261904Y-163872619D01*
X88309523Y-163967857D01*
X88357142Y-164158333D01*
X88357142Y-164396428D01*
X88309523Y-164586904D01*
X88261904Y-164682142D01*
X88214285Y-164729761D01*
X88119047Y-164777380D01*
X88023809Y-164777380D01*
X87928571Y-164729761D01*
X87880952Y-164682142D01*
X87833333Y-164586904D01*
X87785714Y-164396428D01*
X87785714Y-164158333D01*
X87833333Y-163967857D01*
X87880952Y-163872619D01*
X87928571Y-163825000D01*
X88023809Y-163777380D01*
X88785714Y-164777380D02*
X88785714Y-164110714D01*
X88785714Y-164205952D02*
X88833333Y-164158333D01*
X88928571Y-164110714D01*
X89071428Y-164110714D01*
X89166666Y-164158333D01*
X89214285Y-164253571D01*
X89214285Y-164777380D01*
X89214285Y-164253571D02*
X89261904Y-164158333D01*
X89357142Y-164110714D01*
X89500000Y-164110714D01*
X89595238Y-164158333D01*
X89642857Y-164253571D01*
X89642857Y-164777380D01*
X90119047Y-164777380D02*
X90119047Y-164110714D01*
X90119047Y-164205952D02*
X90166666Y-164158333D01*
X90261904Y-164110714D01*
X90404761Y-164110714D01*
X90500000Y-164158333D01*
X90547619Y-164253571D01*
X90547619Y-164777380D01*
X90547619Y-164253571D02*
X90595238Y-164158333D01*
X90690476Y-164110714D01*
X90833333Y-164110714D01*
X90928571Y-164158333D01*
X90976190Y-164253571D01*
X90976190Y-164777380D01*
X91357142Y-164777380D02*
X91880952Y-164110714D01*
X91357142Y-164110714D02*
X91880952Y-164777380D01*
X92738095Y-163777380D02*
X92261904Y-163777380D01*
X92214285Y-164253571D01*
X92261904Y-164205952D01*
X92357142Y-164158333D01*
X92595238Y-164158333D01*
X92690476Y-164205952D01*
X92738095Y-164253571D01*
X92785714Y-164348809D01*
X92785714Y-164586904D01*
X92738095Y-164682142D01*
X92690476Y-164729761D01*
X92595238Y-164777380D01*
X92357142Y-164777380D01*
X92261904Y-164729761D01*
X92214285Y-164682142D01*
X93404761Y-163777380D02*
X93500000Y-163777380D01*
X93595238Y-163825000D01*
X93642857Y-163872619D01*
X93690476Y-163967857D01*
X93738095Y-164158333D01*
X93738095Y-164396428D01*
X93690476Y-164586904D01*
X93642857Y-164682142D01*
X93595238Y-164729761D01*
X93500000Y-164777380D01*
X93404761Y-164777380D01*
X93309523Y-164729761D01*
X93261904Y-164682142D01*
X93214285Y-164586904D01*
X93166666Y-164396428D01*
X93166666Y-164158333D01*
X93214285Y-163967857D01*
X93261904Y-163872619D01*
X93309523Y-163825000D01*
X93404761Y-163777380D01*
X94166666Y-164777380D02*
X94166666Y-164110714D01*
X94166666Y-164205952D02*
X94214285Y-164158333D01*
X94309523Y-164110714D01*
X94452380Y-164110714D01*
X94547619Y-164158333D01*
X94595238Y-164253571D01*
X94595238Y-164777380D01*
X94595238Y-164253571D02*
X94642857Y-164158333D01*
X94738095Y-164110714D01*
X94880952Y-164110714D01*
X94976190Y-164158333D01*
X95023809Y-164253571D01*
X95023809Y-164777380D01*
X95500000Y-164777380D02*
X95500000Y-164110714D01*
X95500000Y-164205952D02*
X95547619Y-164158333D01*
X95642857Y-164110714D01*
X95785714Y-164110714D01*
X95880952Y-164158333D01*
X95928571Y-164253571D01*
X95928571Y-164777380D01*
X95928571Y-164253571D02*
X95976190Y-164158333D01*
X96071428Y-164110714D01*
X96214285Y-164110714D01*
X96309523Y-164158333D01*
X96357142Y-164253571D01*
X96357142Y-164777380D01*
X57761904Y-164452380D02*
X57761904Y-163452380D01*
X58238095Y-164452380D02*
X58238095Y-163452380D01*
X58571428Y-163452380D02*
X59142857Y-163452380D01*
X58857142Y-164452380D02*
X58857142Y-163452380D01*
X60047619Y-164357142D02*
X60000000Y-164404761D01*
X59857142Y-164452380D01*
X59761904Y-164452380D01*
X59619047Y-164404761D01*
X59523809Y-164309523D01*
X59476190Y-164214285D01*
X59428571Y-164023809D01*
X59428571Y-163880952D01*
X59476190Y-163690476D01*
X59523809Y-163595238D01*
X59619047Y-163500000D01*
X59761904Y-163452380D01*
X59857142Y-163452380D01*
X60000000Y-163500000D01*
X60047619Y-163547619D01*
X61809523Y-164452380D02*
X61476190Y-163976190D01*
X61238095Y-164452380D02*
X61238095Y-163452380D01*
X61619047Y-163452380D01*
X61714285Y-163500000D01*
X61761904Y-163547619D01*
X61809523Y-163642857D01*
X61809523Y-163785714D01*
X61761904Y-163880952D01*
X61714285Y-163928571D01*
X61619047Y-163976190D01*
X61238095Y-163976190D01*
X62619047Y-164404761D02*
X62523809Y-164452380D01*
X62333333Y-164452380D01*
X62238095Y-164404761D01*
X62190476Y-164309523D01*
X62190476Y-163928571D01*
X62238095Y-163833333D01*
X62333333Y-163785714D01*
X62523809Y-163785714D01*
X62619047Y-163833333D01*
X62666666Y-163928571D01*
X62666666Y-164023809D01*
X62190476Y-164119047D01*
X62952380Y-163785714D02*
X63333333Y-163785714D01*
X63095238Y-164452380D02*
X63095238Y-163595238D01*
X63142857Y-163500000D01*
X63238095Y-163452380D01*
X63333333Y-163452380D01*
X63809523Y-164452380D02*
X63714285Y-164404761D01*
X63666666Y-164309523D01*
X63666666Y-163452380D01*
X64333333Y-164452380D02*
X64238095Y-164404761D01*
X64190476Y-164357142D01*
X64142857Y-164261904D01*
X64142857Y-163976190D01*
X64190476Y-163880952D01*
X64238095Y-163833333D01*
X64333333Y-163785714D01*
X64476190Y-163785714D01*
X64571428Y-163833333D01*
X64619047Y-163880952D01*
X64666666Y-163976190D01*
X64666666Y-164261904D01*
X64619047Y-164357142D01*
X64571428Y-164404761D01*
X64476190Y-164452380D01*
X64333333Y-164452380D01*
X65000000Y-163785714D02*
X65190476Y-164452380D01*
X65380952Y-163976190D01*
X65571428Y-164452380D01*
X65761904Y-163785714D01*
X66904761Y-164452380D02*
X66904761Y-163452380D01*
X67285714Y-163452380D01*
X67380952Y-163500000D01*
X67428571Y-163547619D01*
X67476190Y-163642857D01*
X67476190Y-163785714D01*
X67428571Y-163880952D01*
X67380952Y-163928571D01*
X67285714Y-163976190D01*
X66904761Y-163976190D01*
X68047619Y-164452380D02*
X67952380Y-164404761D01*
X67904761Y-164309523D01*
X67904761Y-163452380D01*
X68857142Y-164452380D02*
X68857142Y-163928571D01*
X68809523Y-163833333D01*
X68714285Y-163785714D01*
X68523809Y-163785714D01*
X68428571Y-163833333D01*
X68857142Y-164404761D02*
X68761904Y-164452380D01*
X68523809Y-164452380D01*
X68428571Y-164404761D01*
X68380952Y-164309523D01*
X68380952Y-164214285D01*
X68428571Y-164119047D01*
X68523809Y-164071428D01*
X68761904Y-164071428D01*
X68857142Y-164023809D01*
X69190476Y-163785714D02*
X69571428Y-163785714D01*
X69333333Y-163452380D02*
X69333333Y-164309523D01*
X69380952Y-164404761D01*
X69476190Y-164452380D01*
X69571428Y-164452380D01*
X70285714Y-164404761D02*
X70190476Y-164452380D01*
X70000000Y-164452380D01*
X69904761Y-164404761D01*
X69857142Y-164309523D01*
X69857142Y-163928571D01*
X69904761Y-163833333D01*
X70000000Y-163785714D01*
X70190476Y-163785714D01*
X70285714Y-163833333D01*
X70333333Y-163928571D01*
X70333333Y-164023809D01*
X69857142Y-164119047D01*
X72904761Y-163452380D02*
X73238095Y-164452380D01*
X73571428Y-163452380D01*
X74428571Y-164452380D02*
X73857142Y-164452380D01*
X74142857Y-164452380D02*
X74142857Y-163452380D01*
X74047619Y-163595238D01*
X73952380Y-163690476D01*
X73857142Y-163738095D01*
X74857142Y-164357142D02*
X74904761Y-164404761D01*
X74857142Y-164452380D01*
X74809523Y-164404761D01*
X74857142Y-164357142D01*
X74857142Y-164452380D01*
X75523809Y-163452380D02*
X75619047Y-163452380D01*
X75714285Y-163500000D01*
X75761904Y-163547619D01*
X75809523Y-163642857D01*
X75857142Y-163833333D01*
X75857142Y-164071428D01*
X75809523Y-164261904D01*
X75761904Y-164357142D01*
X75714285Y-164404761D01*
X75619047Y-164452380D01*
X75523809Y-164452380D01*
X75428571Y-164404761D01*
X75380952Y-164357142D01*
X75333333Y-164261904D01*
X75285714Y-164071428D01*
X75285714Y-163833333D01*
X75333333Y-163642857D01*
X75380952Y-163547619D01*
X75428571Y-163500000D01*
X75523809Y-163452380D01*
X76285714Y-164357142D02*
X76333333Y-164404761D01*
X76285714Y-164452380D01*
X76238095Y-164404761D01*
X76285714Y-164357142D01*
X76285714Y-164452380D01*
X76714285Y-163547619D02*
X76761904Y-163500000D01*
X76857142Y-163452380D01*
X77095238Y-163452380D01*
X77190476Y-163500000D01*
X77238095Y-163547619D01*
X77285714Y-163642857D01*
X77285714Y-163738095D01*
X77238095Y-163880952D01*
X76666666Y-164452380D01*
X77285714Y-164452380D01*
D11*
X85892857Y-86142857D02*
X86107142Y-85928571D01*
X86750000Y-85714285D01*
X87178571Y-85714285D01*
X87821428Y-85928571D01*
X88250000Y-86357142D01*
X88464285Y-86785714D01*
X88678571Y-87642857D01*
X88678571Y-88285714D01*
X88464285Y-89142857D01*
X88250000Y-89571428D01*
X87821428Y-90000000D01*
X87178571Y-90214285D01*
X86750000Y-90214285D01*
X86107142Y-90000000D01*
X85892857Y-89785714D01*
X84178571Y-87000000D02*
X82035714Y-87000000D01*
X84607142Y-85714285D02*
X83107142Y-90214285D01*
X81607142Y-85714285D01*
X80107142Y-90214285D02*
X80107142Y-86571428D01*
X79892857Y-86142857D01*
X79678571Y-85928571D01*
X79250000Y-85714285D01*
X78392857Y-85714285D01*
X77964285Y-85928571D01*
X77750000Y-86142857D01*
X77535714Y-86571428D01*
X77535714Y-90214285D01*
X76035714Y-90214285D02*
X73464285Y-90214285D01*
X74750000Y-85714285D02*
X74750000Y-90214285D01*
X71964285Y-85714285D02*
X71964285Y-90214285D01*
X68964285Y-90214285D02*
X68107142Y-90214285D01*
X67678571Y-90000000D01*
X67250000Y-89571428D01*
X67035714Y-88714285D01*
X67035714Y-87214285D01*
X67250000Y-86357142D01*
X67678571Y-85928571D01*
X68107142Y-85714285D01*
X68964285Y-85714285D01*
X69392857Y-85928571D01*
X69821428Y-86357142D01*
X70035714Y-87214285D01*
X70035714Y-88714285D01*
X69821428Y-89571428D01*
X69392857Y-90000000D01*
X68964285Y-90214285D01*
X65107142Y-85714285D02*
X65107142Y-90214285D01*
X62535714Y-85714285D01*
X62535714Y-90214285D01*
X97464285Y-78214285D02*
X97464285Y-82714285D01*
X97464285Y-80571428D02*
X94892857Y-80571428D01*
X94892857Y-78214285D02*
X94892857Y-82714285D01*
X91892857Y-82714285D02*
X91035714Y-82714285D01*
X90607142Y-82500000D01*
X90178571Y-82071428D01*
X89964285Y-81214285D01*
X89964285Y-79714285D01*
X90178571Y-78857142D01*
X90607142Y-78428571D01*
X91035714Y-78214285D01*
X91892857Y-78214285D01*
X92321428Y-78428571D01*
X92750000Y-78857142D01*
X92964285Y-79714285D01*
X92964285Y-81214285D01*
X92750000Y-82071428D01*
X92321428Y-82500000D01*
X91892857Y-82714285D01*
X88678571Y-82714285D02*
X86107142Y-82714285D01*
X87392857Y-78214285D02*
X87392857Y-82714285D01*
X81392857Y-78428571D02*
X80750000Y-78214285D01*
X79678571Y-78214285D01*
X79250000Y-78428571D01*
X79035714Y-78642857D01*
X78821428Y-79071428D01*
X78821428Y-79500000D01*
X79035714Y-79928571D01*
X79250000Y-80142857D01*
X79678571Y-80357142D01*
X80535714Y-80571428D01*
X80964285Y-80785714D01*
X81178571Y-81000000D01*
X81392857Y-81428571D01*
X81392857Y-81857142D01*
X81178571Y-82285714D01*
X80964285Y-82500000D01*
X80535714Y-82714285D01*
X79464285Y-82714285D01*
X78821428Y-82500000D01*
X76892857Y-82714285D02*
X76892857Y-79071428D01*
X76678571Y-78642857D01*
X76464285Y-78428571D01*
X76035714Y-78214285D01*
X75178571Y-78214285D01*
X74750000Y-78428571D01*
X74535714Y-78642857D01*
X74321428Y-79071428D01*
X74321428Y-82714285D01*
X69607142Y-78214285D02*
X71107142Y-80357142D01*
X72178571Y-78214285D02*
X72178571Y-82714285D01*
X70464285Y-82714285D01*
X70035714Y-82500000D01*
X69821428Y-82285714D01*
X69607142Y-81857142D01*
X69607142Y-81214285D01*
X69821428Y-80785714D01*
X70035714Y-80571428D01*
X70464285Y-80357142D01*
X72178571Y-80357142D01*
X66178571Y-80571428D02*
X67678571Y-80571428D01*
X67678571Y-78214285D02*
X67678571Y-82714285D01*
X65535714Y-82714285D01*
X64035714Y-79500000D02*
X61892857Y-79500000D01*
X64464285Y-78214285D02*
X62964285Y-82714285D01*
X61464285Y-78214285D01*
X57392857Y-78642857D02*
X57607142Y-78428571D01*
X58250000Y-78214285D01*
X58678571Y-78214285D01*
X59321428Y-78428571D01*
X59750000Y-78857142D01*
X59964285Y-79285714D01*
X60178571Y-80142857D01*
X60178571Y-80785714D01*
X59964285Y-81642857D01*
X59750000Y-82071428D01*
X59321428Y-82500000D01*
X58678571Y-82714285D01*
X58250000Y-82714285D01*
X57607142Y-82500000D01*
X57392857Y-82285714D01*
X55464285Y-80571428D02*
X53964285Y-80571428D01*
X53321428Y-78214285D02*
X55464285Y-78214285D01*
X55464285Y-82714285D01*
X53321428Y-82714285D01*
X65107142Y-142357142D02*
X64892857Y-142571428D01*
X64250000Y-142785714D01*
X63821428Y-142785714D01*
X63178571Y-142571428D01*
X62750000Y-142142857D01*
X62535714Y-141714285D01*
X62321428Y-140857142D01*
X62321428Y-140214285D01*
X62535714Y-139357142D01*
X62750000Y-138928571D01*
X63178571Y-138500000D01*
X63821428Y-138285714D01*
X64250000Y-138285714D01*
X64892857Y-138500000D01*
X65107142Y-138714285D01*
X66821428Y-141500000D02*
X68964285Y-141500000D01*
X66392857Y-142785714D02*
X67892857Y-138285714D01*
X69392857Y-142785714D01*
X70892857Y-138285714D02*
X70892857Y-141928571D01*
X71107142Y-142357142D01*
X71321428Y-142571428D01*
X71750000Y-142785714D01*
X72607142Y-142785714D01*
X73035714Y-142571428D01*
X73250000Y-142357142D01*
X73464285Y-141928571D01*
X73464285Y-138285714D01*
X74964285Y-138285714D02*
X77535714Y-138285714D01*
X76250000Y-142785714D02*
X76250000Y-138285714D01*
X79035714Y-142785714D02*
X79035714Y-138285714D01*
X82035714Y-138285714D02*
X82892857Y-138285714D01*
X83321428Y-138500000D01*
X83750000Y-138928571D01*
X83964285Y-139785714D01*
X83964285Y-141285714D01*
X83750000Y-142142857D01*
X83321428Y-142571428D01*
X82892857Y-142785714D01*
X82035714Y-142785714D01*
X81607142Y-142571428D01*
X81178571Y-142142857D01*
X80964285Y-141285714D01*
X80964285Y-139785714D01*
X81178571Y-138928571D01*
X81607142Y-138500000D01*
X82035714Y-138285714D01*
X85892857Y-142785714D02*
X85892857Y-138285714D01*
X88464285Y-142785714D01*
X88464285Y-138285714D01*
X53535714Y-150285714D02*
X53535714Y-145785714D01*
X53535714Y-147928571D02*
X56107142Y-147928571D01*
X56107142Y-150285714D02*
X56107142Y-145785714D01*
X59107142Y-145785714D02*
X59964285Y-145785714D01*
X60392857Y-146000000D01*
X60821428Y-146428571D01*
X61035714Y-147285714D01*
X61035714Y-148785714D01*
X60821428Y-149642857D01*
X60392857Y-150071428D01*
X59964285Y-150285714D01*
X59107142Y-150285714D01*
X58678571Y-150071428D01*
X58250000Y-149642857D01*
X58035714Y-148785714D01*
X58035714Y-147285714D01*
X58250000Y-146428571D01*
X58678571Y-146000000D01*
X59107142Y-145785714D01*
X62321428Y-145785714D02*
X64892857Y-145785714D01*
X63607142Y-150285714D02*
X63607142Y-145785714D01*
X69607142Y-150071428D02*
X70250000Y-150285714D01*
X71321428Y-150285714D01*
X71750000Y-150071428D01*
X71964285Y-149857142D01*
X72178571Y-149428571D01*
X72178571Y-149000000D01*
X71964285Y-148571428D01*
X71750000Y-148357142D01*
X71321428Y-148142857D01*
X70464285Y-147928571D01*
X70035714Y-147714285D01*
X69821428Y-147500000D01*
X69607142Y-147071428D01*
X69607142Y-146642857D01*
X69821428Y-146214285D01*
X70035714Y-146000000D01*
X70464285Y-145785714D01*
X71535714Y-145785714D01*
X72178571Y-146000000D01*
X74107142Y-145785714D02*
X74107142Y-149428571D01*
X74321428Y-149857142D01*
X74535714Y-150071428D01*
X74964285Y-150285714D01*
X75821428Y-150285714D01*
X76250000Y-150071428D01*
X76464285Y-149857142D01*
X76678571Y-149428571D01*
X76678571Y-145785714D01*
X81392857Y-150285714D02*
X79892857Y-148142857D01*
X78821428Y-150285714D02*
X78821428Y-145785714D01*
X80535714Y-145785714D01*
X80964285Y-146000000D01*
X81178571Y-146214285D01*
X81392857Y-146642857D01*
X81392857Y-147285714D01*
X81178571Y-147714285D01*
X80964285Y-147928571D01*
X80535714Y-148142857D01*
X78821428Y-148142857D01*
X84821428Y-147928571D02*
X83321428Y-147928571D01*
X83321428Y-150285714D02*
X83321428Y-145785714D01*
X85464285Y-145785714D01*
X86964285Y-149000000D02*
X89107142Y-149000000D01*
X86535714Y-150285714D02*
X88035714Y-145785714D01*
X89535714Y-150285714D01*
X93607142Y-149857142D02*
X93392857Y-150071428D01*
X92750000Y-150285714D01*
X92321428Y-150285714D01*
X91678571Y-150071428D01*
X91250000Y-149642857D01*
X91035714Y-149214285D01*
X90821428Y-148357142D01*
X90821428Y-147714285D01*
X91035714Y-146857142D01*
X91250000Y-146428571D01*
X91678571Y-146000000D01*
X92321428Y-145785714D01*
X92750000Y-145785714D01*
X93392857Y-146000000D01*
X93607142Y-146214285D01*
X95535714Y-147928571D02*
X97035714Y-147928571D01*
X97678571Y-150285714D02*
X95535714Y-150285714D01*
X95535714Y-145785714D01*
X97678571Y-145785714D01*
D10*
X79642857Y-157127380D02*
X80214285Y-157127380D01*
X79928571Y-158127380D02*
X79928571Y-157127380D01*
X80547619Y-158127380D02*
X80547619Y-157127380D01*
X80976190Y-158127380D02*
X80976190Y-157603571D01*
X80928571Y-157508333D01*
X80833333Y-157460714D01*
X80690476Y-157460714D01*
X80595238Y-157508333D01*
X80547619Y-157555952D01*
X81833333Y-158079761D02*
X81738095Y-158127380D01*
X81547619Y-158127380D01*
X81452380Y-158079761D01*
X81404761Y-157984523D01*
X81404761Y-157603571D01*
X81452380Y-157508333D01*
X81547619Y-157460714D01*
X81738095Y-157460714D01*
X81833333Y-157508333D01*
X81880952Y-157603571D01*
X81880952Y-157698809D01*
X81404761Y-157794047D01*
X82309523Y-158127380D02*
X82309523Y-157460714D01*
X82309523Y-157651190D02*
X82357142Y-157555952D01*
X82404761Y-157508333D01*
X82500000Y-157460714D01*
X82595238Y-157460714D01*
X82928571Y-158127380D02*
X82928571Y-157460714D01*
X82928571Y-157555952D02*
X82976190Y-157508333D01*
X83071428Y-157460714D01*
X83214285Y-157460714D01*
X83309523Y-157508333D01*
X83357142Y-157603571D01*
X83357142Y-158127380D01*
X83357142Y-157603571D02*
X83404761Y-157508333D01*
X83500000Y-157460714D01*
X83642857Y-157460714D01*
X83738095Y-157508333D01*
X83785714Y-157603571D01*
X83785714Y-158127380D01*
X84690476Y-158127380D02*
X84690476Y-157603571D01*
X84642857Y-157508333D01*
X84547619Y-157460714D01*
X84357142Y-157460714D01*
X84261904Y-157508333D01*
X84690476Y-158079761D02*
X84595238Y-158127380D01*
X84357142Y-158127380D01*
X84261904Y-158079761D01*
X84214285Y-157984523D01*
X84214285Y-157889285D01*
X84261904Y-157794047D01*
X84357142Y-157746428D01*
X84595238Y-157746428D01*
X84690476Y-157698809D01*
X85309523Y-158127380D02*
X85214285Y-158079761D01*
X85166666Y-157984523D01*
X85166666Y-157127380D01*
X81357142Y-159253571D02*
X81023809Y-159253571D01*
X81023809Y-159777380D02*
X81023809Y-158777380D01*
X81500000Y-158777380D01*
X82309523Y-159110714D02*
X82309523Y-159777380D01*
X81880952Y-159110714D02*
X81880952Y-159634523D01*
X81928571Y-159729761D01*
X82023809Y-159777380D01*
X82166666Y-159777380D01*
X82261904Y-159729761D01*
X82309523Y-159682142D01*
X82738095Y-159729761D02*
X82833333Y-159777380D01*
X83023809Y-159777380D01*
X83119047Y-159729761D01*
X83166666Y-159634523D01*
X83166666Y-159586904D01*
X83119047Y-159491666D01*
X83023809Y-159444047D01*
X82880952Y-159444047D01*
X82785714Y-159396428D01*
X82738095Y-159301190D01*
X82738095Y-159253571D01*
X82785714Y-159158333D01*
X82880952Y-159110714D01*
X83023809Y-159110714D01*
X83119047Y-159158333D01*
X83976190Y-159729761D02*
X83880952Y-159777380D01*
X83690476Y-159777380D01*
X83595238Y-159729761D01*
X83547619Y-159634523D01*
X83547619Y-159253571D01*
X83595238Y-159158333D01*
X83690476Y-159110714D01*
X83880952Y-159110714D01*
X83976190Y-159158333D01*
X84023809Y-159253571D01*
X84023809Y-159348809D01*
X83547619Y-159444047D01*
D12*
X100000000Y-76000000D02*
X51000000Y-76000000D01*
X51000000Y-154000000D02*
X51000000Y-76000000D01*
X100000000Y-154000000D02*
X51000000Y-154000000D01*
X100000000Y-76000000D02*
X100000000Y-154000000D01*
D13*
%TO.C,G\u002A\u002A\u002A*%
G36*
X75739205Y-110320178D02*
G01*
X76087862Y-110437023D01*
X76445984Y-110652888D01*
X76812554Y-110966809D01*
X77186556Y-111377821D01*
X77566971Y-111884961D01*
X77952782Y-112487266D01*
X78240851Y-112993108D01*
X78351955Y-113194281D01*
X78503528Y-113464311D01*
X78684832Y-113784304D01*
X78885129Y-114135367D01*
X79093679Y-114498607D01*
X79272414Y-114808000D01*
X79416426Y-115056467D01*
X79605551Y-115382727D01*
X79833932Y-115776683D01*
X80095716Y-116228236D01*
X80385048Y-116727288D01*
X80696073Y-117263740D01*
X81022936Y-117827495D01*
X81359784Y-118408454D01*
X81700760Y-118996519D01*
X82026215Y-119557800D01*
X82354667Y-120124258D01*
X82676463Y-120679266D01*
X82986762Y-121214477D01*
X83280726Y-121721544D01*
X83553516Y-122192118D01*
X83800293Y-122617853D01*
X84016219Y-122990400D01*
X84196455Y-123301412D01*
X84336162Y-123542541D01*
X84430500Y-123705441D01*
X84440894Y-123723400D01*
X84581659Y-123966447D01*
X84766606Y-124285488D01*
X84988858Y-124668679D01*
X85241539Y-125104175D01*
X85517770Y-125580132D01*
X85810676Y-126084706D01*
X86113378Y-126606053D01*
X86418999Y-127132329D01*
X86720663Y-127651689D01*
X87011491Y-128152290D01*
X87284608Y-128622287D01*
X87533135Y-129049837D01*
X87750195Y-129423094D01*
X87843500Y-129583469D01*
X88229805Y-130262293D01*
X88565999Y-130884398D01*
X88849307Y-131444243D01*
X89076956Y-131936283D01*
X89246171Y-132354975D01*
X89283617Y-132461000D01*
X89371691Y-132780227D01*
X89428864Y-133114422D01*
X89453363Y-133437391D01*
X89443413Y-133722939D01*
X89397238Y-133944873D01*
X89386071Y-133973431D01*
X89208361Y-134264652D01*
X88943794Y-134523266D01*
X88604263Y-134740560D01*
X88201663Y-134907822D01*
X88049450Y-134952562D01*
X87956525Y-134977210D01*
X87868382Y-134999985D01*
X87780885Y-135020958D01*
X87689902Y-135040203D01*
X87591297Y-135057790D01*
X87480936Y-135073792D01*
X87354685Y-135088281D01*
X87208409Y-135101329D01*
X87037973Y-135113008D01*
X86839245Y-135123390D01*
X86608088Y-135132547D01*
X86340369Y-135140551D01*
X86031953Y-135147474D01*
X85678706Y-135153388D01*
X85276494Y-135158366D01*
X84821182Y-135162479D01*
X84308636Y-135165799D01*
X83734720Y-135168398D01*
X83095302Y-135170349D01*
X82386246Y-135171723D01*
X81603419Y-135172593D01*
X80742685Y-135173030D01*
X79799911Y-135173107D01*
X78770961Y-135172896D01*
X77651702Y-135172468D01*
X76437999Y-135171895D01*
X75488800Y-135171427D01*
X74422274Y-135170716D01*
X73380223Y-135169650D01*
X72367398Y-135168250D01*
X71388548Y-135166534D01*
X70448425Y-135164523D01*
X69551777Y-135162236D01*
X68703357Y-135159692D01*
X67907913Y-135156913D01*
X67170196Y-135153916D01*
X66494957Y-135150722D01*
X65886945Y-135147350D01*
X65350911Y-135143820D01*
X64891606Y-135140152D01*
X64513779Y-135136366D01*
X64222180Y-135132480D01*
X64021561Y-135128515D01*
X63916671Y-135124489D01*
X63906400Y-135123534D01*
X63379834Y-135033640D01*
X62907457Y-134908041D01*
X62501408Y-134751227D01*
X62173825Y-134567685D01*
X61984624Y-134412896D01*
X61794745Y-134186604D01*
X61670874Y-133940450D01*
X61601406Y-133645898D01*
X61580101Y-133418122D01*
X61587520Y-133090870D01*
X63412177Y-133090870D01*
X63419982Y-133140623D01*
X63457892Y-133163117D01*
X63552571Y-133189544D01*
X63714836Y-133222055D01*
X63955499Y-133262798D01*
X64285376Y-133313922D01*
X64312800Y-133318052D01*
X64374934Y-133319812D01*
X64534041Y-133321446D01*
X64785491Y-133322953D01*
X65124657Y-133324327D01*
X65546911Y-133325564D01*
X66047624Y-133326660D01*
X66622169Y-133327612D01*
X67265918Y-133328415D01*
X67974242Y-133329065D01*
X68742514Y-133329559D01*
X69566105Y-133329891D01*
X70440387Y-133330059D01*
X71360733Y-133330058D01*
X72322514Y-133329883D01*
X73321103Y-133329532D01*
X74351870Y-133329000D01*
X75410189Y-133328283D01*
X75742800Y-133328022D01*
X77084899Y-133326807D01*
X78328413Y-133325397D01*
X79476356Y-133323775D01*
X80531743Y-133321921D01*
X81497588Y-133319819D01*
X82376906Y-133317449D01*
X83172711Y-133314794D01*
X83888017Y-133311835D01*
X84525840Y-133308554D01*
X85089194Y-133304933D01*
X85581093Y-133300953D01*
X86004552Y-133296597D01*
X86362585Y-133291846D01*
X86658207Y-133286682D01*
X86894433Y-133281087D01*
X87074276Y-133275042D01*
X87200752Y-133268530D01*
X87276874Y-133261531D01*
X87295624Y-133258189D01*
X87443249Y-133219074D01*
X87544552Y-133186175D01*
X87568966Y-133173967D01*
X87569229Y-133106695D01*
X87523200Y-132961537D01*
X87435735Y-132748390D01*
X87311690Y-132477155D01*
X87155921Y-132157730D01*
X86973284Y-131800015D01*
X86768635Y-131413909D01*
X86546831Y-131009311D01*
X86312727Y-130596119D01*
X86257729Y-130501039D01*
X86045648Y-130135718D01*
X85803442Y-129718277D01*
X85551883Y-129284529D01*
X85311741Y-128870286D01*
X85133173Y-128562100D01*
X84850247Y-128073840D01*
X84531479Y-127524063D01*
X84191601Y-126938150D01*
X83845342Y-126341486D01*
X83507432Y-125759454D01*
X83192603Y-125217437D01*
X82944295Y-124790200D01*
X82793904Y-124531438D01*
X82642206Y-124270268D01*
X82506323Y-124036174D01*
X82403373Y-123858641D01*
X82398599Y-123850400D01*
X82282083Y-123650236D01*
X82139158Y-123406111D01*
X81995258Y-123161436D01*
X81952145Y-123088400D01*
X81827150Y-122875623D01*
X81708160Y-122670882D01*
X81613873Y-122506430D01*
X81584058Y-122453400D01*
X81533864Y-122364991D01*
X81438876Y-122199535D01*
X81305336Y-121967836D01*
X81139486Y-121680699D01*
X80947569Y-121348929D01*
X80735825Y-120983328D01*
X80510497Y-120594704D01*
X80454157Y-120497600D01*
X80195963Y-120052600D01*
X79923476Y-119582877D01*
X79647983Y-119107891D01*
X79380769Y-118647102D01*
X79133118Y-118219971D01*
X78916317Y-117845958D01*
X78774949Y-117602000D01*
X78550684Y-117215141D01*
X78301430Y-116785564D01*
X78044804Y-116343606D01*
X77798424Y-115919604D01*
X77579908Y-115543897D01*
X77521176Y-115443000D01*
X77336043Y-115123779D01*
X77153690Y-114807073D01*
X76985315Y-114512499D01*
X76842114Y-114259674D01*
X76735287Y-114068217D01*
X76709248Y-114020600D01*
X76489957Y-113630854D01*
X76264668Y-113256903D01*
X76047443Y-112920946D01*
X75852344Y-112645185D01*
X75776127Y-112547400D01*
X75667700Y-112413484D01*
X75587645Y-112313918D01*
X75555013Y-112272494D01*
X75513275Y-112290883D01*
X75426424Y-112383882D01*
X75303484Y-112540130D01*
X75153481Y-112748263D01*
X75013880Y-112953800D01*
X74941090Y-113063836D01*
X74875278Y-113164373D01*
X74811213Y-113264210D01*
X74743663Y-113372146D01*
X74667397Y-113496978D01*
X74577183Y-113647506D01*
X74467789Y-113832529D01*
X74333985Y-114060845D01*
X74170537Y-114341252D01*
X73972216Y-114682549D01*
X73733789Y-115093536D01*
X73450025Y-115583010D01*
X73428120Y-115620800D01*
X73192107Y-116027645D01*
X72954777Y-116436185D01*
X72725138Y-116830955D01*
X72512195Y-117196490D01*
X72324957Y-117517328D01*
X72172430Y-117778003D01*
X72081828Y-117932200D01*
X71975795Y-118112581D01*
X71825728Y-118368592D01*
X71638738Y-118688071D01*
X71421932Y-119058856D01*
X71182418Y-119468786D01*
X70927306Y-119905701D01*
X70663704Y-120357438D01*
X70433837Y-120751600D01*
X70167231Y-121208712D01*
X69901787Y-121663492D01*
X69644807Y-122103454D01*
X69403592Y-122516112D01*
X69185442Y-122888980D01*
X68997659Y-123209571D01*
X68847544Y-123465401D01*
X68755495Y-123621800D01*
X68634069Y-123828168D01*
X68466206Y-124114326D01*
X68256584Y-124472260D01*
X68009882Y-124893954D01*
X67730778Y-125371393D01*
X67423952Y-125896563D01*
X67094081Y-126461448D01*
X66745844Y-127058034D01*
X66383920Y-127678306D01*
X66012988Y-128314248D01*
X65637725Y-128957846D01*
X65262811Y-129601085D01*
X64892924Y-130235951D01*
X64532743Y-130854427D01*
X64240933Y-131355730D01*
X64009173Y-131764132D01*
X63809504Y-132136511D01*
X63645947Y-132464121D01*
X63522525Y-132738214D01*
X63443260Y-132950046D01*
X63412177Y-133090870D01*
X61587520Y-133090870D01*
X61590370Y-132965195D01*
X61673599Y-132498630D01*
X61833824Y-131998151D01*
X61892119Y-131851400D01*
X61937776Y-131758584D01*
X62030307Y-131585879D01*
X62165237Y-131341061D01*
X62338089Y-131031908D01*
X62544386Y-130666198D01*
X62779651Y-130251708D01*
X63039408Y-129796216D01*
X63319181Y-129307499D01*
X63614492Y-128793334D01*
X63920866Y-128261500D01*
X64233825Y-127719773D01*
X64548893Y-127175932D01*
X64861594Y-126637753D01*
X65167450Y-126113014D01*
X65461986Y-125609494D01*
X65740724Y-125134968D01*
X65999189Y-124697215D01*
X66232903Y-124304013D01*
X66321901Y-124155200D01*
X66381825Y-124054062D01*
X66487454Y-123874519D01*
X66633318Y-123625934D01*
X66813946Y-123317672D01*
X67023867Y-122959097D01*
X67257612Y-122559574D01*
X67509710Y-122128466D01*
X67774691Y-121675139D01*
X68047083Y-121208956D01*
X68321416Y-120739283D01*
X68592221Y-120275483D01*
X68854026Y-119826921D01*
X69101361Y-119402960D01*
X69328756Y-119012967D01*
X69530740Y-118666304D01*
X69701843Y-118372336D01*
X69836594Y-118140428D01*
X69929522Y-117979944D01*
X69942402Y-117957600D01*
X70062243Y-117750544D01*
X70218659Y-117481899D01*
X70396531Y-117177545D01*
X70580742Y-116863359D01*
X70713988Y-116636800D01*
X71154994Y-115887172D01*
X71545628Y-115221149D01*
X71887898Y-114635278D01*
X72183810Y-114126108D01*
X72435372Y-113690185D01*
X72644591Y-113324056D01*
X72796086Y-113055400D01*
X73193478Y-112378364D01*
X73573855Y-111799604D01*
X73938749Y-111317500D01*
X74289692Y-110930434D01*
X74628215Y-110636787D01*
X74955850Y-110434942D01*
X75274130Y-110323281D01*
X75401033Y-110303315D01*
X75739205Y-110320178D01*
G37*
X75739205Y-110320178D02*
X76087862Y-110437023D01*
X76445984Y-110652888D01*
X76812554Y-110966809D01*
X77186556Y-111377821D01*
X77566971Y-111884961D01*
X77952782Y-112487266D01*
X78240851Y-112993108D01*
X78351955Y-113194281D01*
X78503528Y-113464311D01*
X78684832Y-113784304D01*
X78885129Y-114135367D01*
X79093679Y-114498607D01*
X79272414Y-114808000D01*
X79416426Y-115056467D01*
X79605551Y-115382727D01*
X79833932Y-115776683D01*
X80095716Y-116228236D01*
X80385048Y-116727288D01*
X80696073Y-117263740D01*
X81022936Y-117827495D01*
X81359784Y-118408454D01*
X81700760Y-118996519D01*
X82026215Y-119557800D01*
X82354667Y-120124258D01*
X82676463Y-120679266D01*
X82986762Y-121214477D01*
X83280726Y-121721544D01*
X83553516Y-122192118D01*
X83800293Y-122617853D01*
X84016219Y-122990400D01*
X84196455Y-123301412D01*
X84336162Y-123542541D01*
X84430500Y-123705441D01*
X84440894Y-123723400D01*
X84581659Y-123966447D01*
X84766606Y-124285488D01*
X84988858Y-124668679D01*
X85241539Y-125104175D01*
X85517770Y-125580132D01*
X85810676Y-126084706D01*
X86113378Y-126606053D01*
X86418999Y-127132329D01*
X86720663Y-127651689D01*
X87011491Y-128152290D01*
X87284608Y-128622287D01*
X87533135Y-129049837D01*
X87750195Y-129423094D01*
X87843500Y-129583469D01*
X88229805Y-130262293D01*
X88565999Y-130884398D01*
X88849307Y-131444243D01*
X89076956Y-131936283D01*
X89246171Y-132354975D01*
X89283617Y-132461000D01*
X89371691Y-132780227D01*
X89428864Y-133114422D01*
X89453363Y-133437391D01*
X89443413Y-133722939D01*
X89397238Y-133944873D01*
X89386071Y-133973431D01*
X89208361Y-134264652D01*
X88943794Y-134523266D01*
X88604263Y-134740560D01*
X88201663Y-134907822D01*
X88049450Y-134952562D01*
X87956525Y-134977210D01*
X87868382Y-134999985D01*
X87780885Y-135020958D01*
X87689902Y-135040203D01*
X87591297Y-135057790D01*
X87480936Y-135073792D01*
X87354685Y-135088281D01*
X87208409Y-135101329D01*
X87037973Y-135113008D01*
X86839245Y-135123390D01*
X86608088Y-135132547D01*
X86340369Y-135140551D01*
X86031953Y-135147474D01*
X85678706Y-135153388D01*
X85276494Y-135158366D01*
X84821182Y-135162479D01*
X84308636Y-135165799D01*
X83734720Y-135168398D01*
X83095302Y-135170349D01*
X82386246Y-135171723D01*
X81603419Y-135172593D01*
X80742685Y-135173030D01*
X79799911Y-135173107D01*
X78770961Y-135172896D01*
X77651702Y-135172468D01*
X76437999Y-135171895D01*
X75488800Y-135171427D01*
X74422274Y-135170716D01*
X73380223Y-135169650D01*
X72367398Y-135168250D01*
X71388548Y-135166534D01*
X70448425Y-135164523D01*
X69551777Y-135162236D01*
X68703357Y-135159692D01*
X67907913Y-135156913D01*
X67170196Y-135153916D01*
X66494957Y-135150722D01*
X65886945Y-135147350D01*
X65350911Y-135143820D01*
X64891606Y-135140152D01*
X64513779Y-135136366D01*
X64222180Y-135132480D01*
X64021561Y-135128515D01*
X63916671Y-135124489D01*
X63906400Y-135123534D01*
X63379834Y-135033640D01*
X62907457Y-134908041D01*
X62501408Y-134751227D01*
X62173825Y-134567685D01*
X61984624Y-134412896D01*
X61794745Y-134186604D01*
X61670874Y-133940450D01*
X61601406Y-133645898D01*
X61580101Y-133418122D01*
X61587520Y-133090870D01*
X63412177Y-133090870D01*
X63419982Y-133140623D01*
X63457892Y-133163117D01*
X63552571Y-133189544D01*
X63714836Y-133222055D01*
X63955499Y-133262798D01*
X64285376Y-133313922D01*
X64312800Y-133318052D01*
X64374934Y-133319812D01*
X64534041Y-133321446D01*
X64785491Y-133322953D01*
X65124657Y-133324327D01*
X65546911Y-133325564D01*
X66047624Y-133326660D01*
X66622169Y-133327612D01*
X67265918Y-133328415D01*
X67974242Y-133329065D01*
X68742514Y-133329559D01*
X69566105Y-133329891D01*
X70440387Y-133330059D01*
X71360733Y-133330058D01*
X72322514Y-133329883D01*
X73321103Y-133329532D01*
X74351870Y-133329000D01*
X75410189Y-133328283D01*
X75742800Y-133328022D01*
X77084899Y-133326807D01*
X78328413Y-133325397D01*
X79476356Y-133323775D01*
X80531743Y-133321921D01*
X81497588Y-133319819D01*
X82376906Y-133317449D01*
X83172711Y-133314794D01*
X83888017Y-133311835D01*
X84525840Y-133308554D01*
X85089194Y-133304933D01*
X85581093Y-133300953D01*
X86004552Y-133296597D01*
X86362585Y-133291846D01*
X86658207Y-133286682D01*
X86894433Y-133281087D01*
X87074276Y-133275042D01*
X87200752Y-133268530D01*
X87276874Y-133261531D01*
X87295624Y-133258189D01*
X87443249Y-133219074D01*
X87544552Y-133186175D01*
X87568966Y-133173967D01*
X87569229Y-133106695D01*
X87523200Y-132961537D01*
X87435735Y-132748390D01*
X87311690Y-132477155D01*
X87155921Y-132157730D01*
X86973284Y-131800015D01*
X86768635Y-131413909D01*
X86546831Y-131009311D01*
X86312727Y-130596119D01*
X86257729Y-130501039D01*
X86045648Y-130135718D01*
X85803442Y-129718277D01*
X85551883Y-129284529D01*
X85311741Y-128870286D01*
X85133173Y-128562100D01*
X84850247Y-128073840D01*
X84531479Y-127524063D01*
X84191601Y-126938150D01*
X83845342Y-126341486D01*
X83507432Y-125759454D01*
X83192603Y-125217437D01*
X82944295Y-124790200D01*
X82793904Y-124531438D01*
X82642206Y-124270268D01*
X82506323Y-124036174D01*
X82403373Y-123858641D01*
X82398599Y-123850400D01*
X82282083Y-123650236D01*
X82139158Y-123406111D01*
X81995258Y-123161436D01*
X81952145Y-123088400D01*
X81827150Y-122875623D01*
X81708160Y-122670882D01*
X81613873Y-122506430D01*
X81584058Y-122453400D01*
X81533864Y-122364991D01*
X81438876Y-122199535D01*
X81305336Y-121967836D01*
X81139486Y-121680699D01*
X80947569Y-121348929D01*
X80735825Y-120983328D01*
X80510497Y-120594704D01*
X80454157Y-120497600D01*
X80195963Y-120052600D01*
X79923476Y-119582877D01*
X79647983Y-119107891D01*
X79380769Y-118647102D01*
X79133118Y-118219971D01*
X78916317Y-117845958D01*
X78774949Y-117602000D01*
X78550684Y-117215141D01*
X78301430Y-116785564D01*
X78044804Y-116343606D01*
X77798424Y-115919604D01*
X77579908Y-115543897D01*
X77521176Y-115443000D01*
X77336043Y-115123779D01*
X77153690Y-114807073D01*
X76985315Y-114512499D01*
X76842114Y-114259674D01*
X76735287Y-114068217D01*
X76709248Y-114020600D01*
X76489957Y-113630854D01*
X76264668Y-113256903D01*
X76047443Y-112920946D01*
X75852344Y-112645185D01*
X75776127Y-112547400D01*
X75667700Y-112413484D01*
X75587645Y-112313918D01*
X75555013Y-112272494D01*
X75513275Y-112290883D01*
X75426424Y-112383882D01*
X75303484Y-112540130D01*
X75153481Y-112748263D01*
X75013880Y-112953800D01*
X74941090Y-113063836D01*
X74875278Y-113164373D01*
X74811213Y-113264210D01*
X74743663Y-113372146D01*
X74667397Y-113496978D01*
X74577183Y-113647506D01*
X74467789Y-113832529D01*
X74333985Y-114060845D01*
X74170537Y-114341252D01*
X73972216Y-114682549D01*
X73733789Y-115093536D01*
X73450025Y-115583010D01*
X73428120Y-115620800D01*
X73192107Y-116027645D01*
X72954777Y-116436185D01*
X72725138Y-116830955D01*
X72512195Y-117196490D01*
X72324957Y-117517328D01*
X72172430Y-117778003D01*
X72081828Y-117932200D01*
X71975795Y-118112581D01*
X71825728Y-118368592D01*
X71638738Y-118688071D01*
X71421932Y-119058856D01*
X71182418Y-119468786D01*
X70927306Y-119905701D01*
X70663704Y-120357438D01*
X70433837Y-120751600D01*
X70167231Y-121208712D01*
X69901787Y-121663492D01*
X69644807Y-122103454D01*
X69403592Y-122516112D01*
X69185442Y-122888980D01*
X68997659Y-123209571D01*
X68847544Y-123465401D01*
X68755495Y-123621800D01*
X68634069Y-123828168D01*
X68466206Y-124114326D01*
X68256584Y-124472260D01*
X68009882Y-124893954D01*
X67730778Y-125371393D01*
X67423952Y-125896563D01*
X67094081Y-126461448D01*
X66745844Y-127058034D01*
X66383920Y-127678306D01*
X66012988Y-128314248D01*
X65637725Y-128957846D01*
X65262811Y-129601085D01*
X64892924Y-130235951D01*
X64532743Y-130854427D01*
X64240933Y-131355730D01*
X64009173Y-131764132D01*
X63809504Y-132136511D01*
X63645947Y-132464121D01*
X63522525Y-132738214D01*
X63443260Y-132950046D01*
X63412177Y-133090870D01*
X61587520Y-133090870D01*
X61590370Y-132965195D01*
X61673599Y-132498630D01*
X61833824Y-131998151D01*
X61892119Y-131851400D01*
X61937776Y-131758584D01*
X62030307Y-131585879D01*
X62165237Y-131341061D01*
X62338089Y-131031908D01*
X62544386Y-130666198D01*
X62779651Y-130251708D01*
X63039408Y-129796216D01*
X63319181Y-129307499D01*
X63614492Y-128793334D01*
X63920866Y-128261500D01*
X64233825Y-127719773D01*
X64548893Y-127175932D01*
X64861594Y-126637753D01*
X65167450Y-126113014D01*
X65461986Y-125609494D01*
X65740724Y-125134968D01*
X65999189Y-124697215D01*
X66232903Y-124304013D01*
X66321901Y-124155200D01*
X66381825Y-124054062D01*
X66487454Y-123874519D01*
X66633318Y-123625934D01*
X66813946Y-123317672D01*
X67023867Y-122959097D01*
X67257612Y-122559574D01*
X67509710Y-122128466D01*
X67774691Y-121675139D01*
X68047083Y-121208956D01*
X68321416Y-120739283D01*
X68592221Y-120275483D01*
X68854026Y-119826921D01*
X69101361Y-119402960D01*
X69328756Y-119012967D01*
X69530740Y-118666304D01*
X69701843Y-118372336D01*
X69836594Y-118140428D01*
X69929522Y-117979944D01*
X69942402Y-117957600D01*
X70062243Y-117750544D01*
X70218659Y-117481899D01*
X70396531Y-117177545D01*
X70580742Y-116863359D01*
X70713988Y-116636800D01*
X71154994Y-115887172D01*
X71545628Y-115221149D01*
X71887898Y-114635278D01*
X72183810Y-114126108D01*
X72435372Y-113690185D01*
X72644591Y-113324056D01*
X72796086Y-113055400D01*
X73193478Y-112378364D01*
X73573855Y-111799604D01*
X73938749Y-111317500D01*
X74289692Y-110930434D01*
X74628215Y-110636787D01*
X74955850Y-110434942D01*
X75274130Y-110323281D01*
X75401033Y-110303315D01*
X75739205Y-110320178D01*
G36*
X82177480Y-130432862D02*
G01*
X82259122Y-130531188D01*
X82289936Y-130633933D01*
X82283145Y-130787130D01*
X82282053Y-130796959D01*
X82236732Y-130990440D01*
X82146443Y-131113954D01*
X82136182Y-131122167D01*
X82115295Y-131135562D01*
X82085800Y-131147588D01*
X82042427Y-131158314D01*
X81979910Y-131167812D01*
X81892982Y-131176153D01*
X81776375Y-131183408D01*
X81624821Y-131189647D01*
X81433054Y-131194942D01*
X81195806Y-131199362D01*
X80907809Y-131202980D01*
X80563795Y-131205865D01*
X80158499Y-131208090D01*
X79686652Y-131209724D01*
X79142986Y-131210838D01*
X78522235Y-131211504D01*
X77819131Y-131211793D01*
X77028406Y-131211774D01*
X76144793Y-131211520D01*
X75514200Y-131211259D01*
X74708941Y-131210703D01*
X73931391Y-131209777D01*
X73187640Y-131208508D01*
X72483779Y-131206923D01*
X71825900Y-131205047D01*
X71220094Y-131202909D01*
X70672452Y-131200534D01*
X70189066Y-131197950D01*
X69776026Y-131195184D01*
X69439424Y-131192261D01*
X69185352Y-131189209D01*
X69019900Y-131186056D01*
X68949159Y-131182826D01*
X68947231Y-131182399D01*
X68864059Y-131105344D01*
X68789630Y-130965656D01*
X68741440Y-130801923D01*
X68732400Y-130708613D01*
X68779962Y-130529949D01*
X68857090Y-130426690D01*
X68981781Y-130302000D01*
X82046618Y-130302000D01*
X82177480Y-130432862D01*
G37*
X82177480Y-130432862D02*
X82259122Y-130531188D01*
X82289936Y-130633933D01*
X82283145Y-130787130D01*
X82282053Y-130796959D01*
X82236732Y-130990440D01*
X82146443Y-131113954D01*
X82136182Y-131122167D01*
X82115295Y-131135562D01*
X82085800Y-131147588D01*
X82042427Y-131158314D01*
X81979910Y-131167812D01*
X81892982Y-131176153D01*
X81776375Y-131183408D01*
X81624821Y-131189647D01*
X81433054Y-131194942D01*
X81195806Y-131199362D01*
X80907809Y-131202980D01*
X80563795Y-131205865D01*
X80158499Y-131208090D01*
X79686652Y-131209724D01*
X79142986Y-131210838D01*
X78522235Y-131211504D01*
X77819131Y-131211793D01*
X77028406Y-131211774D01*
X76144793Y-131211520D01*
X75514200Y-131211259D01*
X74708941Y-131210703D01*
X73931391Y-131209777D01*
X73187640Y-131208508D01*
X72483779Y-131206923D01*
X71825900Y-131205047D01*
X71220094Y-131202909D01*
X70672452Y-131200534D01*
X70189066Y-131197950D01*
X69776026Y-131195184D01*
X69439424Y-131192261D01*
X69185352Y-131189209D01*
X69019900Y-131186056D01*
X68949159Y-131182826D01*
X68947231Y-131182399D01*
X68864059Y-131105344D01*
X68789630Y-130965656D01*
X68741440Y-130801923D01*
X68732400Y-130708613D01*
X68779962Y-130529949D01*
X68857090Y-130426690D01*
X68981781Y-130302000D01*
X82046618Y-130302000D01*
X82177480Y-130432862D01*
G36*
X72922979Y-120323830D02*
G01*
X73007265Y-120388050D01*
X73100211Y-120485283D01*
X73152025Y-120585690D01*
X73159941Y-120704127D01*
X73121189Y-120855452D01*
X73033001Y-121054520D01*
X72892610Y-121316188D01*
X72806025Y-121468113D01*
X72565662Y-121902208D01*
X72384501Y-122269854D01*
X72257416Y-122583242D01*
X72179279Y-122854564D01*
X72150969Y-123025935D01*
X72141148Y-123174892D01*
X72155049Y-123301644D01*
X72201125Y-123441420D01*
X72287829Y-123629448D01*
X72303348Y-123660935D01*
X72423016Y-123868098D01*
X72601687Y-124130345D01*
X72827028Y-124430414D01*
X73055758Y-124714000D01*
X73340320Y-125065781D01*
X73559685Y-125362708D01*
X73721902Y-125620334D01*
X73835022Y-125854216D01*
X73907092Y-126079908D01*
X73946163Y-126312966D01*
X73956757Y-126455157D01*
X73952123Y-126753073D01*
X73903872Y-127033937D01*
X73805141Y-127310901D01*
X73649065Y-127597114D01*
X73428779Y-127905726D01*
X73137419Y-128249887D01*
X72869646Y-128537663D01*
X72624321Y-128787852D01*
X72431732Y-128966180D01*
X72279102Y-129078444D01*
X72153652Y-129130438D01*
X72042605Y-129127958D01*
X71933185Y-129076801D01*
X71838832Y-129005226D01*
X71702851Y-128841171D01*
X71645636Y-128657565D01*
X71674811Y-128480980D01*
X71683433Y-128463479D01*
X71742099Y-128380843D01*
X71854685Y-128244580D01*
X72004559Y-128074173D01*
X72161576Y-127903457D01*
X72435203Y-127588552D01*
X72645494Y-127296309D01*
X72743231Y-127124112D01*
X72831607Y-126932770D01*
X72878667Y-126784909D01*
X72893912Y-126636031D01*
X72887334Y-126449254D01*
X72866341Y-126254304D01*
X72824210Y-126074774D01*
X72752247Y-125893033D01*
X72641760Y-125691452D01*
X72484056Y-125452399D01*
X72270444Y-125158245D01*
X72213116Y-125081771D01*
X71842461Y-124564526D01*
X71553488Y-124105873D01*
X71345646Y-123704733D01*
X71218382Y-123360031D01*
X71171145Y-123070690D01*
X71170800Y-123046497D01*
X71199347Y-122777747D01*
X71279923Y-122453451D01*
X71404923Y-122100324D01*
X71505824Y-121869200D01*
X71611056Y-121659543D01*
X71745208Y-121412342D01*
X71895607Y-121148868D01*
X72049583Y-120890395D01*
X72194463Y-120658196D01*
X72317575Y-120473541D01*
X72406073Y-120357900D01*
X72556179Y-120259611D01*
X72735480Y-120248605D01*
X72922979Y-120323830D01*
G37*
X72922979Y-120323830D02*
X73007265Y-120388050D01*
X73100211Y-120485283D01*
X73152025Y-120585690D01*
X73159941Y-120704127D01*
X73121189Y-120855452D01*
X73033001Y-121054520D01*
X72892610Y-121316188D01*
X72806025Y-121468113D01*
X72565662Y-121902208D01*
X72384501Y-122269854D01*
X72257416Y-122583242D01*
X72179279Y-122854564D01*
X72150969Y-123025935D01*
X72141148Y-123174892D01*
X72155049Y-123301644D01*
X72201125Y-123441420D01*
X72287829Y-123629448D01*
X72303348Y-123660935D01*
X72423016Y-123868098D01*
X72601687Y-124130345D01*
X72827028Y-124430414D01*
X73055758Y-124714000D01*
X73340320Y-125065781D01*
X73559685Y-125362708D01*
X73721902Y-125620334D01*
X73835022Y-125854216D01*
X73907092Y-126079908D01*
X73946163Y-126312966D01*
X73956757Y-126455157D01*
X73952123Y-126753073D01*
X73903872Y-127033937D01*
X73805141Y-127310901D01*
X73649065Y-127597114D01*
X73428779Y-127905726D01*
X73137419Y-128249887D01*
X72869646Y-128537663D01*
X72624321Y-128787852D01*
X72431732Y-128966180D01*
X72279102Y-129078444D01*
X72153652Y-129130438D01*
X72042605Y-129127958D01*
X71933185Y-129076801D01*
X71838832Y-129005226D01*
X71702851Y-128841171D01*
X71645636Y-128657565D01*
X71674811Y-128480980D01*
X71683433Y-128463479D01*
X71742099Y-128380843D01*
X71854685Y-128244580D01*
X72004559Y-128074173D01*
X72161576Y-127903457D01*
X72435203Y-127588552D01*
X72645494Y-127296309D01*
X72743231Y-127124112D01*
X72831607Y-126932770D01*
X72878667Y-126784909D01*
X72893912Y-126636031D01*
X72887334Y-126449254D01*
X72866341Y-126254304D01*
X72824210Y-126074774D01*
X72752247Y-125893033D01*
X72641760Y-125691452D01*
X72484056Y-125452399D01*
X72270444Y-125158245D01*
X72213116Y-125081771D01*
X71842461Y-124564526D01*
X71553488Y-124105873D01*
X71345646Y-123704733D01*
X71218382Y-123360031D01*
X71171145Y-123070690D01*
X71170800Y-123046497D01*
X71199347Y-122777747D01*
X71279923Y-122453451D01*
X71404923Y-122100324D01*
X71505824Y-121869200D01*
X71611056Y-121659543D01*
X71745208Y-121412342D01*
X71895607Y-121148868D01*
X72049583Y-120890395D01*
X72194463Y-120658196D01*
X72317575Y-120473541D01*
X72406073Y-120357900D01*
X72556179Y-120259611D01*
X72735480Y-120248605D01*
X72922979Y-120323830D01*
G36*
X75685733Y-120262180D02*
G01*
X75846003Y-120329110D01*
X75973141Y-120445835D01*
X76047611Y-120602393D01*
X76049878Y-120788819D01*
X76022624Y-120878600D01*
X75965952Y-120996448D01*
X75873573Y-121165685D01*
X75764316Y-121351980D01*
X75751449Y-121373061D01*
X75457048Y-121886214D01*
X75241214Y-122337683D01*
X75103243Y-122729331D01*
X75042431Y-123063022D01*
X75043553Y-123245726D01*
X75091348Y-123458265D01*
X75199829Y-123700381D01*
X75374564Y-123981705D01*
X75621123Y-124311868D01*
X75756148Y-124477925D01*
X76058974Y-124848098D01*
X76299765Y-125157270D01*
X76485788Y-125418727D01*
X76624313Y-125645761D01*
X76722609Y-125851661D01*
X76787946Y-126049714D01*
X76827593Y-126253212D01*
X76848820Y-126475442D01*
X76848821Y-126475458D01*
X76839610Y-126800329D01*
X76767845Y-127119957D01*
X76628049Y-127444477D01*
X76414745Y-127784019D01*
X76122457Y-128148718D01*
X75745708Y-128548705D01*
X75707901Y-128586355D01*
X75464726Y-128819201D01*
X75272991Y-128980691D01*
X75119573Y-129077917D01*
X74991345Y-129117969D01*
X74875183Y-129107937D01*
X74798946Y-129077423D01*
X74672593Y-128968743D01*
X74572046Y-128804761D01*
X74524484Y-128631764D01*
X74523600Y-128608494D01*
X74552717Y-128513889D01*
X74643928Y-128374391D01*
X74803024Y-128181964D01*
X74938681Y-128032132D01*
X75242817Y-127688851D01*
X75472105Y-127392078D01*
X75633533Y-127128108D01*
X75734089Y-126883233D01*
X75780757Y-126643749D01*
X75780527Y-126395949D01*
X75779395Y-126382926D01*
X75754597Y-126218161D01*
X75705811Y-126052412D01*
X75625506Y-125871845D01*
X75506153Y-125662627D01*
X75340221Y-125410923D01*
X75120180Y-125102899D01*
X74978024Y-124910713D01*
X74665916Y-124466786D01*
X74414669Y-124055345D01*
X74228342Y-123684543D01*
X74110990Y-123362537D01*
X74066669Y-123097479D01*
X74066400Y-123078175D01*
X74080605Y-122866504D01*
X74116860Y-122628528D01*
X74143967Y-122507144D01*
X74226848Y-122260376D01*
X74360149Y-121950562D01*
X74534139Y-121596538D01*
X74739090Y-121217140D01*
X74965272Y-120831204D01*
X75201474Y-120459795D01*
X75343934Y-120317560D01*
X75511865Y-120255009D01*
X75685733Y-120262180D01*
G37*
X75685733Y-120262180D02*
X75846003Y-120329110D01*
X75973141Y-120445835D01*
X76047611Y-120602393D01*
X76049878Y-120788819D01*
X76022624Y-120878600D01*
X75965952Y-120996448D01*
X75873573Y-121165685D01*
X75764316Y-121351980D01*
X75751449Y-121373061D01*
X75457048Y-121886214D01*
X75241214Y-122337683D01*
X75103243Y-122729331D01*
X75042431Y-123063022D01*
X75043553Y-123245726D01*
X75091348Y-123458265D01*
X75199829Y-123700381D01*
X75374564Y-123981705D01*
X75621123Y-124311868D01*
X75756148Y-124477925D01*
X76058974Y-124848098D01*
X76299765Y-125157270D01*
X76485788Y-125418727D01*
X76624313Y-125645761D01*
X76722609Y-125851661D01*
X76787946Y-126049714D01*
X76827593Y-126253212D01*
X76848820Y-126475442D01*
X76848821Y-126475458D01*
X76839610Y-126800329D01*
X76767845Y-127119957D01*
X76628049Y-127444477D01*
X76414745Y-127784019D01*
X76122457Y-128148718D01*
X75745708Y-128548705D01*
X75707901Y-128586355D01*
X75464726Y-128819201D01*
X75272991Y-128980691D01*
X75119573Y-129077917D01*
X74991345Y-129117969D01*
X74875183Y-129107937D01*
X74798946Y-129077423D01*
X74672593Y-128968743D01*
X74572046Y-128804761D01*
X74524484Y-128631764D01*
X74523600Y-128608494D01*
X74552717Y-128513889D01*
X74643928Y-128374391D01*
X74803024Y-128181964D01*
X74938681Y-128032132D01*
X75242817Y-127688851D01*
X75472105Y-127392078D01*
X75633533Y-127128108D01*
X75734089Y-126883233D01*
X75780757Y-126643749D01*
X75780527Y-126395949D01*
X75779395Y-126382926D01*
X75754597Y-126218161D01*
X75705811Y-126052412D01*
X75625506Y-125871845D01*
X75506153Y-125662627D01*
X75340221Y-125410923D01*
X75120180Y-125102899D01*
X74978024Y-124910713D01*
X74665916Y-124466786D01*
X74414669Y-124055345D01*
X74228342Y-123684543D01*
X74110990Y-123362537D01*
X74066669Y-123097479D01*
X74066400Y-123078175D01*
X74080605Y-122866504D01*
X74116860Y-122628528D01*
X74143967Y-122507144D01*
X74226848Y-122260376D01*
X74360149Y-121950562D01*
X74534139Y-121596538D01*
X74739090Y-121217140D01*
X74965272Y-120831204D01*
X75201474Y-120459795D01*
X75343934Y-120317560D01*
X75511865Y-120255009D01*
X75685733Y-120262180D01*
G36*
X78572373Y-120261113D02*
G01*
X78748848Y-120351446D01*
X78794707Y-120392092D01*
X78881388Y-120493964D01*
X78927921Y-120598230D01*
X78931272Y-120720091D01*
X78888403Y-120874749D01*
X78796278Y-121077405D01*
X78651861Y-121343259D01*
X78579538Y-121469380D01*
X78324244Y-121938676D01*
X78129872Y-122357538D01*
X77999065Y-122719244D01*
X77934464Y-123017074D01*
X77927696Y-123127962D01*
X77943068Y-123298657D01*
X77992470Y-123479341D01*
X78081881Y-123679891D01*
X78217280Y-123910184D01*
X78404645Y-124180099D01*
X78649955Y-124499511D01*
X78959189Y-124878299D01*
X79060065Y-124998747D01*
X79377065Y-125421857D01*
X79597556Y-125825704D01*
X79723336Y-126216675D01*
X79756204Y-126601158D01*
X79697960Y-126985541D01*
X79657158Y-127118982D01*
X79553951Y-127367638D01*
X79410765Y-127619487D01*
X79217394Y-127888635D01*
X78963634Y-128189185D01*
X78639281Y-128535242D01*
X78613000Y-128562221D01*
X78380201Y-128796801D01*
X78201702Y-128963504D01*
X78063616Y-129069771D01*
X77952051Y-129123042D01*
X77853121Y-129130759D01*
X77752936Y-129100361D01*
X77678791Y-129062708D01*
X77525513Y-128923826D01*
X77435847Y-128728477D01*
X77421000Y-128611759D01*
X77439551Y-128523882D01*
X77503900Y-128411049D01*
X77624012Y-128258929D01*
X77808274Y-128054881D01*
X78135083Y-127684260D01*
X78380192Y-127355501D01*
X78548970Y-127058103D01*
X78646784Y-126781563D01*
X78679003Y-126515380D01*
X78670531Y-126368078D01*
X78630328Y-126165324D01*
X78552283Y-125952921D01*
X78428363Y-125715840D01*
X78250535Y-125439055D01*
X78010768Y-125107536D01*
X77962925Y-125044200D01*
X77619766Y-124570008D01*
X77342960Y-124139779D01*
X77137104Y-123761026D01*
X77038261Y-123532106D01*
X76966171Y-123201065D01*
X76976723Y-122821313D01*
X77068925Y-122401824D01*
X77203312Y-122037845D01*
X77298938Y-121833726D01*
X77424340Y-121590970D01*
X77568973Y-121327413D01*
X77722289Y-121060891D01*
X77873745Y-120809240D01*
X78012793Y-120590296D01*
X78128888Y-120421896D01*
X78211484Y-120321874D01*
X78224706Y-120310362D01*
X78386723Y-120245850D01*
X78572373Y-120261113D01*
G37*
X78572373Y-120261113D02*
X78748848Y-120351446D01*
X78794707Y-120392092D01*
X78881388Y-120493964D01*
X78927921Y-120598230D01*
X78931272Y-120720091D01*
X78888403Y-120874749D01*
X78796278Y-121077405D01*
X78651861Y-121343259D01*
X78579538Y-121469380D01*
X78324244Y-121938676D01*
X78129872Y-122357538D01*
X77999065Y-122719244D01*
X77934464Y-123017074D01*
X77927696Y-123127962D01*
X77943068Y-123298657D01*
X77992470Y-123479341D01*
X78081881Y-123679891D01*
X78217280Y-123910184D01*
X78404645Y-124180099D01*
X78649955Y-124499511D01*
X78959189Y-124878299D01*
X79060065Y-124998747D01*
X79377065Y-125421857D01*
X79597556Y-125825704D01*
X79723336Y-126216675D01*
X79756204Y-126601158D01*
X79697960Y-126985541D01*
X79657158Y-127118982D01*
X79553951Y-127367638D01*
X79410765Y-127619487D01*
X79217394Y-127888635D01*
X78963634Y-128189185D01*
X78639281Y-128535242D01*
X78613000Y-128562221D01*
X78380201Y-128796801D01*
X78201702Y-128963504D01*
X78063616Y-129069771D01*
X77952051Y-129123042D01*
X77853121Y-129130759D01*
X77752936Y-129100361D01*
X77678791Y-129062708D01*
X77525513Y-128923826D01*
X77435847Y-128728477D01*
X77421000Y-128611759D01*
X77439551Y-128523882D01*
X77503900Y-128411049D01*
X77624012Y-128258929D01*
X77808274Y-128054881D01*
X78135083Y-127684260D01*
X78380192Y-127355501D01*
X78548970Y-127058103D01*
X78646784Y-126781563D01*
X78679003Y-126515380D01*
X78670531Y-126368078D01*
X78630328Y-126165324D01*
X78552283Y-125952921D01*
X78428363Y-125715840D01*
X78250535Y-125439055D01*
X78010768Y-125107536D01*
X77962925Y-125044200D01*
X77619766Y-124570008D01*
X77342960Y-124139779D01*
X77137104Y-123761026D01*
X77038261Y-123532106D01*
X76966171Y-123201065D01*
X76976723Y-122821313D01*
X77068925Y-122401824D01*
X77203312Y-122037845D01*
X77298938Y-121833726D01*
X77424340Y-121590970D01*
X77568973Y-121327413D01*
X77722289Y-121060891D01*
X77873745Y-120809240D01*
X78012793Y-120590296D01*
X78128888Y-120421896D01*
X78211484Y-120321874D01*
X78224706Y-120310362D01*
X78386723Y-120245850D01*
X78572373Y-120261113D01*
G36*
X77063600Y-122199400D02*
G01*
X77038200Y-122224800D01*
X77012800Y-122199400D01*
X77038200Y-122174000D01*
X77063600Y-122199400D01*
G37*
X77063600Y-122199400D02*
X77038200Y-122224800D01*
X77012800Y-122199400D01*
X77038200Y-122174000D01*
X77063600Y-122199400D01*
G36*
X78943200Y-121285000D02*
G01*
X78917800Y-121310400D01*
X78892400Y-121285000D01*
X78917800Y-121259600D01*
X78943200Y-121285000D01*
G37*
X78943200Y-121285000D02*
X78917800Y-121310400D01*
X78892400Y-121285000D01*
X78917800Y-121259600D01*
X78943200Y-121285000D01*
%TO.C,MH5*%
D10*
X84666666Y-156252380D02*
X84666666Y-155252380D01*
X85000000Y-155966666D01*
X85333333Y-155252380D01*
X85333333Y-156252380D01*
X85809523Y-156252380D02*
X85809523Y-155252380D01*
X85809523Y-155728571D02*
X86380952Y-155728571D01*
X86380952Y-156252380D02*
X86380952Y-155252380D01*
X87333333Y-155252380D02*
X86857142Y-155252380D01*
X86809523Y-155728571D01*
X86857142Y-155680952D01*
X86952380Y-155633333D01*
X87190476Y-155633333D01*
X87285714Y-155680952D01*
X87333333Y-155728571D01*
X87380952Y-155823809D01*
X87380952Y-156061904D01*
X87333333Y-156157142D01*
X87285714Y-156204761D01*
X87190476Y-156252380D01*
X86952380Y-156252380D01*
X86857142Y-156204761D01*
X86809523Y-156157142D01*
%TO.C,MH4*%
X94666666Y-156252380D02*
X94666666Y-155252380D01*
X95000000Y-155966666D01*
X95333333Y-155252380D01*
X95333333Y-156252380D01*
X95809523Y-156252380D02*
X95809523Y-155252380D01*
X95809523Y-155728571D02*
X96380952Y-155728571D01*
X96380952Y-156252380D02*
X96380952Y-155252380D01*
X97285714Y-155585714D02*
X97285714Y-156252380D01*
X97047619Y-155204761D02*
X96809523Y-155919047D01*
X97428571Y-155919047D01*
%TO.C,MH3*%
X94666666Y-74952380D02*
X94666666Y-73952380D01*
X95000000Y-74666666D01*
X95333333Y-73952380D01*
X95333333Y-74952380D01*
X95809523Y-74952380D02*
X95809523Y-73952380D01*
X95809523Y-74428571D02*
X96380952Y-74428571D01*
X96380952Y-74952380D02*
X96380952Y-73952380D01*
X96761904Y-73952380D02*
X97380952Y-73952380D01*
X97047619Y-74333333D01*
X97190476Y-74333333D01*
X97285714Y-74380952D01*
X97333333Y-74428571D01*
X97380952Y-74523809D01*
X97380952Y-74761904D01*
X97333333Y-74857142D01*
X97285714Y-74904761D01*
X97190476Y-74952380D01*
X96904761Y-74952380D01*
X96809523Y-74904761D01*
X96761904Y-74857142D01*
%TO.C,MH2*%
X53666666Y-74952380D02*
X53666666Y-73952380D01*
X54000000Y-74666666D01*
X54333333Y-73952380D01*
X54333333Y-74952380D01*
X54809523Y-74952380D02*
X54809523Y-73952380D01*
X54809523Y-74428571D02*
X55380952Y-74428571D01*
X55380952Y-74952380D02*
X55380952Y-73952380D01*
X55809523Y-74047619D02*
X55857142Y-74000000D01*
X55952380Y-73952380D01*
X56190476Y-73952380D01*
X56285714Y-74000000D01*
X56333333Y-74047619D01*
X56380952Y-74142857D01*
X56380952Y-74238095D01*
X56333333Y-74380952D01*
X55761904Y-74952380D01*
X56380952Y-74952380D01*
%TO.C,MH1*%
X53666666Y-156252380D02*
X53666666Y-155252380D01*
X54000000Y-155966666D01*
X54333333Y-155252380D01*
X54333333Y-156252380D01*
X54809523Y-156252380D02*
X54809523Y-155252380D01*
X54809523Y-155728571D02*
X55380952Y-155728571D01*
X55380952Y-156252380D02*
X55380952Y-155252380D01*
X56380952Y-156252380D02*
X55809523Y-156252380D01*
X56095238Y-156252380D02*
X56095238Y-155252380D01*
X56000000Y-155395238D01*
X55904761Y-155490476D01*
X55809523Y-155538095D01*
%TO.C,J2*%
X74666666Y-155252380D02*
X74666666Y-155966666D01*
X74619047Y-156109523D01*
X74523809Y-156204761D01*
X74380952Y-156252380D01*
X74285714Y-156252380D01*
X75095238Y-155347619D02*
X75142857Y-155300000D01*
X75238095Y-155252380D01*
X75476190Y-155252380D01*
X75571428Y-155300000D01*
X75619047Y-155347619D01*
X75666666Y-155442857D01*
X75666666Y-155538095D01*
X75619047Y-155680952D01*
X75047619Y-156252380D01*
X75666666Y-156252380D01*
%TO.C,J1*%
X64666666Y-155252380D02*
X64666666Y-155966666D01*
X64619047Y-156109523D01*
X64523809Y-156204761D01*
X64380952Y-156252380D01*
X64285714Y-156252380D01*
X65666666Y-156252380D02*
X65095238Y-156252380D01*
X65380952Y-156252380D02*
X65380952Y-155252380D01*
X65285714Y-155395238D01*
X65190476Y-155490476D01*
X65095238Y-155538095D01*
%TD*%
M02*
