%TF.GenerationSoftware,KiCad,Pcbnew,(5.1.10-1-10_14)*%
%TF.CreationDate,2022-01-16T21:07:01-08:00*%
%TF.ProjectId,Reflow_Heater,5265666c-6f77-45f4-9865-617465722e6b,rev?*%
%TF.SameCoordinates,Original*%
%TF.FileFunction,Legend,Bot*%
%TF.FilePolarity,Positive*%
%FSLAX46Y46*%
G04 Gerber Fmt 4.6, Leading zero omitted, Abs format (unit mm)*
G04 Created by KiCad (PCBNEW (5.1.10-1-10_14)) date 2022-01-16 21:07:01*
%MOMM*%
%LPD*%
G01*
G04 APERTURE LIST*
%ADD10C,0.120000*%
%ADD11C,0.750000*%
%ADD12C,0.010000*%
G04 APERTURE END LIST*
D10*
X51000000Y-76000000D02*
X51000000Y-154000000D01*
X51000000Y-76000000D02*
X100000000Y-76000000D01*
X100000000Y-154000000D02*
X100000000Y-76000000D01*
X100000000Y-154000000D02*
X51000000Y-154000000D01*
D11*
X86892857Y-141857142D02*
X87107142Y-142071428D01*
X87750000Y-142285714D01*
X88178571Y-142285714D01*
X88821428Y-142071428D01*
X89250000Y-141642857D01*
X89464285Y-141214285D01*
X89678571Y-140357142D01*
X89678571Y-139714285D01*
X89464285Y-138857142D01*
X89250000Y-138428571D01*
X88821428Y-138000000D01*
X88178571Y-137785714D01*
X87750000Y-137785714D01*
X87107142Y-138000000D01*
X86892857Y-138214285D01*
X85178571Y-141000000D02*
X83035714Y-141000000D01*
X85607142Y-142285714D02*
X84107142Y-137785714D01*
X82607142Y-142285714D01*
X81107142Y-137785714D02*
X81107142Y-141428571D01*
X80892857Y-141857142D01*
X80678571Y-142071428D01*
X80250000Y-142285714D01*
X79392857Y-142285714D01*
X78964285Y-142071428D01*
X78750000Y-141857142D01*
X78535714Y-141428571D01*
X78535714Y-137785714D01*
X77035714Y-137785714D02*
X74464285Y-137785714D01*
X75750000Y-142285714D02*
X75750000Y-137785714D01*
X72964285Y-142285714D02*
X72964285Y-137785714D01*
X69964285Y-137785714D02*
X69107142Y-137785714D01*
X68678571Y-138000000D01*
X68250000Y-138428571D01*
X68035714Y-139285714D01*
X68035714Y-140785714D01*
X68250000Y-141642857D01*
X68678571Y-142071428D01*
X69107142Y-142285714D01*
X69964285Y-142285714D01*
X70392857Y-142071428D01*
X70821428Y-141642857D01*
X71035714Y-140785714D01*
X71035714Y-139285714D01*
X70821428Y-138428571D01*
X70392857Y-138000000D01*
X69964285Y-137785714D01*
X66107142Y-142285714D02*
X66107142Y-137785714D01*
X63535714Y-142285714D01*
X63535714Y-137785714D01*
X98464285Y-149785714D02*
X98464285Y-145285714D01*
X98464285Y-147428571D02*
X95892857Y-147428571D01*
X95892857Y-149785714D02*
X95892857Y-145285714D01*
X92892857Y-145285714D02*
X92035714Y-145285714D01*
X91607142Y-145500000D01*
X91178571Y-145928571D01*
X90964285Y-146785714D01*
X90964285Y-148285714D01*
X91178571Y-149142857D01*
X91607142Y-149571428D01*
X92035714Y-149785714D01*
X92892857Y-149785714D01*
X93321428Y-149571428D01*
X93750000Y-149142857D01*
X93964285Y-148285714D01*
X93964285Y-146785714D01*
X93750000Y-145928571D01*
X93321428Y-145500000D01*
X92892857Y-145285714D01*
X89678571Y-145285714D02*
X87107142Y-145285714D01*
X88392857Y-149785714D02*
X88392857Y-145285714D01*
X82392857Y-149571428D02*
X81750000Y-149785714D01*
X80678571Y-149785714D01*
X80250000Y-149571428D01*
X80035714Y-149357142D01*
X79821428Y-148928571D01*
X79821428Y-148500000D01*
X80035714Y-148071428D01*
X80250000Y-147857142D01*
X80678571Y-147642857D01*
X81535714Y-147428571D01*
X81964285Y-147214285D01*
X82178571Y-147000000D01*
X82392857Y-146571428D01*
X82392857Y-146142857D01*
X82178571Y-145714285D01*
X81964285Y-145500000D01*
X81535714Y-145285714D01*
X80464285Y-145285714D01*
X79821428Y-145500000D01*
X77892857Y-145285714D02*
X77892857Y-148928571D01*
X77678571Y-149357142D01*
X77464285Y-149571428D01*
X77035714Y-149785714D01*
X76178571Y-149785714D01*
X75750000Y-149571428D01*
X75535714Y-149357142D01*
X75321428Y-148928571D01*
X75321428Y-145285714D01*
X70607142Y-149785714D02*
X72107142Y-147642857D01*
X73178571Y-149785714D02*
X73178571Y-145285714D01*
X71464285Y-145285714D01*
X71035714Y-145500000D01*
X70821428Y-145714285D01*
X70607142Y-146142857D01*
X70607142Y-146785714D01*
X70821428Y-147214285D01*
X71035714Y-147428571D01*
X71464285Y-147642857D01*
X73178571Y-147642857D01*
X67178571Y-147428571D02*
X68678571Y-147428571D01*
X68678571Y-149785714D02*
X68678571Y-145285714D01*
X66535714Y-145285714D01*
X65035714Y-148500000D02*
X62892857Y-148500000D01*
X65464285Y-149785714D02*
X63964285Y-145285714D01*
X62464285Y-149785714D01*
X58392857Y-149357142D02*
X58607142Y-149571428D01*
X59250000Y-149785714D01*
X59678571Y-149785714D01*
X60321428Y-149571428D01*
X60750000Y-149142857D01*
X60964285Y-148714285D01*
X61178571Y-147857142D01*
X61178571Y-147214285D01*
X60964285Y-146357142D01*
X60750000Y-145928571D01*
X60321428Y-145500000D01*
X59678571Y-145285714D01*
X59250000Y-145285714D01*
X58607142Y-145500000D01*
X58392857Y-145714285D01*
X56464285Y-147428571D02*
X54964285Y-147428571D01*
X54321428Y-149785714D02*
X56464285Y-149785714D01*
X56464285Y-145285714D01*
X54321428Y-145285714D01*
X65107142Y-86142857D02*
X64892857Y-85928571D01*
X64250000Y-85714285D01*
X63821428Y-85714285D01*
X63178571Y-85928571D01*
X62750000Y-86357142D01*
X62535714Y-86785714D01*
X62321428Y-87642857D01*
X62321428Y-88285714D01*
X62535714Y-89142857D01*
X62750000Y-89571428D01*
X63178571Y-90000000D01*
X63821428Y-90214285D01*
X64250000Y-90214285D01*
X64892857Y-90000000D01*
X65107142Y-89785714D01*
X66821428Y-87000000D02*
X68964285Y-87000000D01*
X66392857Y-85714285D02*
X67892857Y-90214285D01*
X69392857Y-85714285D01*
X70892857Y-90214285D02*
X70892857Y-86571428D01*
X71107142Y-86142857D01*
X71321428Y-85928571D01*
X71750000Y-85714285D01*
X72607142Y-85714285D01*
X73035714Y-85928571D01*
X73250000Y-86142857D01*
X73464285Y-86571428D01*
X73464285Y-90214285D01*
X74964285Y-90214285D02*
X77535714Y-90214285D01*
X76250000Y-85714285D02*
X76250000Y-90214285D01*
X79035714Y-85714285D02*
X79035714Y-90214285D01*
X82035714Y-90214285D02*
X82892857Y-90214285D01*
X83321428Y-90000000D01*
X83750000Y-89571428D01*
X83964285Y-88714285D01*
X83964285Y-87214285D01*
X83750000Y-86357142D01*
X83321428Y-85928571D01*
X82892857Y-85714285D01*
X82035714Y-85714285D01*
X81607142Y-85928571D01*
X81178571Y-86357142D01*
X80964285Y-87214285D01*
X80964285Y-88714285D01*
X81178571Y-89571428D01*
X81607142Y-90000000D01*
X82035714Y-90214285D01*
X85892857Y-85714285D02*
X85892857Y-90214285D01*
X88464285Y-85714285D01*
X88464285Y-90214285D01*
X53535714Y-78214285D02*
X53535714Y-82714285D01*
X53535714Y-80571428D02*
X56107142Y-80571428D01*
X56107142Y-78214285D02*
X56107142Y-82714285D01*
X59107142Y-82714285D02*
X59964285Y-82714285D01*
X60392857Y-82500000D01*
X60821428Y-82071428D01*
X61035714Y-81214285D01*
X61035714Y-79714285D01*
X60821428Y-78857142D01*
X60392857Y-78428571D01*
X59964285Y-78214285D01*
X59107142Y-78214285D01*
X58678571Y-78428571D01*
X58250000Y-78857142D01*
X58035714Y-79714285D01*
X58035714Y-81214285D01*
X58250000Y-82071428D01*
X58678571Y-82500000D01*
X59107142Y-82714285D01*
X62321428Y-82714285D02*
X64892857Y-82714285D01*
X63607142Y-78214285D02*
X63607142Y-82714285D01*
X69607142Y-78428571D02*
X70250000Y-78214285D01*
X71321428Y-78214285D01*
X71750000Y-78428571D01*
X71964285Y-78642857D01*
X72178571Y-79071428D01*
X72178571Y-79500000D01*
X71964285Y-79928571D01*
X71750000Y-80142857D01*
X71321428Y-80357142D01*
X70464285Y-80571428D01*
X70035714Y-80785714D01*
X69821428Y-81000000D01*
X69607142Y-81428571D01*
X69607142Y-81857142D01*
X69821428Y-82285714D01*
X70035714Y-82500000D01*
X70464285Y-82714285D01*
X71535714Y-82714285D01*
X72178571Y-82500000D01*
X74107142Y-82714285D02*
X74107142Y-79071428D01*
X74321428Y-78642857D01*
X74535714Y-78428571D01*
X74964285Y-78214285D01*
X75821428Y-78214285D01*
X76250000Y-78428571D01*
X76464285Y-78642857D01*
X76678571Y-79071428D01*
X76678571Y-82714285D01*
X81392857Y-78214285D02*
X79892857Y-80357142D01*
X78821428Y-78214285D02*
X78821428Y-82714285D01*
X80535714Y-82714285D01*
X80964285Y-82500000D01*
X81178571Y-82285714D01*
X81392857Y-81857142D01*
X81392857Y-81214285D01*
X81178571Y-80785714D01*
X80964285Y-80571428D01*
X80535714Y-80357142D01*
X78821428Y-80357142D01*
X84821428Y-80571428D02*
X83321428Y-80571428D01*
X83321428Y-78214285D02*
X83321428Y-82714285D01*
X85464285Y-82714285D01*
X86964285Y-79500000D02*
X89107142Y-79500000D01*
X86535714Y-78214285D02*
X88035714Y-82714285D01*
X89535714Y-78214285D01*
X93607142Y-78642857D02*
X93392857Y-78428571D01*
X92750000Y-78214285D01*
X92321428Y-78214285D01*
X91678571Y-78428571D01*
X91250000Y-78857142D01*
X91035714Y-79285714D01*
X90821428Y-80142857D01*
X90821428Y-80785714D01*
X91035714Y-81642857D01*
X91250000Y-82071428D01*
X91678571Y-82500000D01*
X92321428Y-82714285D01*
X92750000Y-82714285D01*
X93392857Y-82500000D01*
X93607142Y-82285714D01*
X95535714Y-80571428D02*
X97035714Y-80571428D01*
X97678571Y-78214285D02*
X95535714Y-78214285D01*
X95535714Y-82714285D01*
X97678571Y-82714285D01*
D12*
%TO.C,G\u002A\u002A\u002A*%
G36*
X75917005Y-118178222D02*
G01*
X76265662Y-118061377D01*
X76623784Y-117845512D01*
X76990354Y-117531591D01*
X77364356Y-117120579D01*
X77744771Y-116613439D01*
X78130582Y-116011134D01*
X78418651Y-115505292D01*
X78529755Y-115304119D01*
X78681328Y-115034089D01*
X78862632Y-114714096D01*
X79062929Y-114363033D01*
X79271479Y-113999793D01*
X79450214Y-113690400D01*
X79594226Y-113441933D01*
X79783351Y-113115673D01*
X80011732Y-112721717D01*
X80273516Y-112270164D01*
X80562848Y-111771112D01*
X80873873Y-111234660D01*
X81200736Y-110670905D01*
X81537584Y-110089946D01*
X81878560Y-109501881D01*
X82204015Y-108940600D01*
X82532467Y-108374142D01*
X82854263Y-107819134D01*
X83164562Y-107283923D01*
X83458526Y-106776856D01*
X83731316Y-106306282D01*
X83978093Y-105880547D01*
X84194019Y-105508000D01*
X84374255Y-105196988D01*
X84513962Y-104955859D01*
X84608300Y-104792959D01*
X84618694Y-104775000D01*
X84759459Y-104531953D01*
X84944406Y-104212912D01*
X85166658Y-103829721D01*
X85419339Y-103394225D01*
X85695570Y-102918268D01*
X85988476Y-102413694D01*
X86291178Y-101892347D01*
X86596799Y-101366071D01*
X86898463Y-100846711D01*
X87189291Y-100346110D01*
X87462408Y-99876113D01*
X87710935Y-99448563D01*
X87927995Y-99075306D01*
X88021300Y-98914931D01*
X88407605Y-98236107D01*
X88743799Y-97614002D01*
X89027107Y-97054157D01*
X89254756Y-96562117D01*
X89423971Y-96143425D01*
X89461417Y-96037400D01*
X89549491Y-95718173D01*
X89606664Y-95383978D01*
X89631163Y-95061009D01*
X89621213Y-94775461D01*
X89575038Y-94553527D01*
X89563871Y-94524969D01*
X89386161Y-94233748D01*
X89121594Y-93975134D01*
X88782063Y-93757840D01*
X88379463Y-93590578D01*
X88227250Y-93545838D01*
X88134325Y-93521190D01*
X88046182Y-93498415D01*
X87958685Y-93477442D01*
X87867702Y-93458197D01*
X87769097Y-93440610D01*
X87658736Y-93424608D01*
X87532485Y-93410119D01*
X87386209Y-93397071D01*
X87215773Y-93385392D01*
X87017045Y-93375010D01*
X86785888Y-93365853D01*
X86518169Y-93357849D01*
X86209753Y-93350926D01*
X85856506Y-93345012D01*
X85454294Y-93340034D01*
X84998982Y-93335921D01*
X84486436Y-93332601D01*
X83912520Y-93330002D01*
X83273102Y-93328051D01*
X82564046Y-93326677D01*
X81781219Y-93325807D01*
X80920485Y-93325370D01*
X79977711Y-93325293D01*
X78948761Y-93325504D01*
X77829502Y-93325932D01*
X76615799Y-93326505D01*
X75666600Y-93326973D01*
X74600074Y-93327684D01*
X73558023Y-93328750D01*
X72545198Y-93330150D01*
X71566348Y-93331866D01*
X70626225Y-93333877D01*
X69729577Y-93336164D01*
X68881157Y-93338708D01*
X68085713Y-93341487D01*
X67347996Y-93344484D01*
X66672757Y-93347678D01*
X66064745Y-93351050D01*
X65528711Y-93354580D01*
X65069406Y-93358248D01*
X64691579Y-93362034D01*
X64399980Y-93365920D01*
X64199361Y-93369885D01*
X64094471Y-93373911D01*
X64084200Y-93374866D01*
X63557634Y-93464760D01*
X63085257Y-93590359D01*
X62679208Y-93747173D01*
X62351625Y-93930715D01*
X62162424Y-94085504D01*
X61972545Y-94311796D01*
X61848674Y-94557950D01*
X61779206Y-94852502D01*
X61757901Y-95080278D01*
X61765320Y-95407530D01*
X63589977Y-95407530D01*
X63597782Y-95357777D01*
X63635692Y-95335283D01*
X63730371Y-95308856D01*
X63892636Y-95276345D01*
X64133299Y-95235602D01*
X64463176Y-95184478D01*
X64490600Y-95180348D01*
X64552734Y-95178588D01*
X64711841Y-95176954D01*
X64963291Y-95175447D01*
X65302457Y-95174073D01*
X65724711Y-95172836D01*
X66225424Y-95171740D01*
X66799969Y-95170788D01*
X67443718Y-95169985D01*
X68152042Y-95169335D01*
X68920314Y-95168841D01*
X69743905Y-95168509D01*
X70618187Y-95168341D01*
X71538533Y-95168342D01*
X72500314Y-95168517D01*
X73498903Y-95168868D01*
X74529670Y-95169400D01*
X75587989Y-95170117D01*
X75920600Y-95170378D01*
X77262699Y-95171593D01*
X78506213Y-95173003D01*
X79654156Y-95174625D01*
X80709543Y-95176479D01*
X81675388Y-95178581D01*
X82554706Y-95180951D01*
X83350511Y-95183606D01*
X84065817Y-95186565D01*
X84703640Y-95189846D01*
X85266994Y-95193467D01*
X85758893Y-95197447D01*
X86182352Y-95201803D01*
X86540385Y-95206554D01*
X86836007Y-95211718D01*
X87072233Y-95217313D01*
X87252076Y-95223358D01*
X87378552Y-95229870D01*
X87454674Y-95236869D01*
X87473424Y-95240211D01*
X87621049Y-95279326D01*
X87722352Y-95312225D01*
X87746766Y-95324433D01*
X87747029Y-95391705D01*
X87701000Y-95536863D01*
X87613535Y-95750010D01*
X87489490Y-96021245D01*
X87333721Y-96340670D01*
X87151084Y-96698385D01*
X86946435Y-97084491D01*
X86724631Y-97489089D01*
X86490527Y-97902281D01*
X86435529Y-97997361D01*
X86223448Y-98362682D01*
X85981242Y-98780123D01*
X85729683Y-99213871D01*
X85489541Y-99628114D01*
X85310973Y-99936300D01*
X85028047Y-100424560D01*
X84709279Y-100974337D01*
X84369401Y-101560250D01*
X84023142Y-102156914D01*
X83685232Y-102738946D01*
X83370403Y-103280963D01*
X83122095Y-103708200D01*
X82971704Y-103966962D01*
X82820006Y-104228132D01*
X82684123Y-104462226D01*
X82581173Y-104639759D01*
X82576399Y-104648000D01*
X82459883Y-104848164D01*
X82316958Y-105092289D01*
X82173058Y-105336964D01*
X82129945Y-105410000D01*
X82004950Y-105622777D01*
X81885960Y-105827518D01*
X81791673Y-105991970D01*
X81761858Y-106045000D01*
X81711664Y-106133409D01*
X81616676Y-106298865D01*
X81483136Y-106530564D01*
X81317286Y-106817701D01*
X81125369Y-107149471D01*
X80913625Y-107515072D01*
X80688297Y-107903696D01*
X80631957Y-108000800D01*
X80373763Y-108445800D01*
X80101276Y-108915523D01*
X79825783Y-109390509D01*
X79558569Y-109851298D01*
X79310918Y-110278429D01*
X79094117Y-110652442D01*
X78952749Y-110896400D01*
X78728484Y-111283259D01*
X78479230Y-111712836D01*
X78222604Y-112154794D01*
X77976224Y-112578796D01*
X77757708Y-112954503D01*
X77698976Y-113055400D01*
X77513843Y-113374621D01*
X77331490Y-113691327D01*
X77163115Y-113985901D01*
X77019914Y-114238726D01*
X76913087Y-114430183D01*
X76887048Y-114477800D01*
X76667757Y-114867546D01*
X76442468Y-115241497D01*
X76225243Y-115577454D01*
X76030144Y-115853215D01*
X75953927Y-115951000D01*
X75845500Y-116084916D01*
X75765445Y-116184482D01*
X75732813Y-116225906D01*
X75691075Y-116207517D01*
X75604224Y-116114518D01*
X75481284Y-115958270D01*
X75331281Y-115750137D01*
X75191680Y-115544600D01*
X75118890Y-115434564D01*
X75053078Y-115334027D01*
X74989013Y-115234190D01*
X74921463Y-115126254D01*
X74845197Y-115001422D01*
X74754983Y-114850894D01*
X74645589Y-114665871D01*
X74511785Y-114437555D01*
X74348337Y-114157148D01*
X74150016Y-113815851D01*
X73911589Y-113404864D01*
X73627825Y-112915390D01*
X73605920Y-112877600D01*
X73369907Y-112470755D01*
X73132577Y-112062215D01*
X72902938Y-111667445D01*
X72689995Y-111301910D01*
X72502757Y-110981072D01*
X72350230Y-110720397D01*
X72259628Y-110566200D01*
X72153595Y-110385819D01*
X72003528Y-110129808D01*
X71816538Y-109810329D01*
X71599732Y-109439544D01*
X71360218Y-109029614D01*
X71105106Y-108592699D01*
X70841504Y-108140962D01*
X70611637Y-107746800D01*
X70345031Y-107289688D01*
X70079587Y-106834908D01*
X69822607Y-106394946D01*
X69581392Y-105982288D01*
X69363242Y-105609420D01*
X69175459Y-105288829D01*
X69025344Y-105032999D01*
X68933295Y-104876600D01*
X68811869Y-104670232D01*
X68644006Y-104384074D01*
X68434384Y-104026140D01*
X68187682Y-103604446D01*
X67908578Y-103127007D01*
X67601752Y-102601837D01*
X67271881Y-102036952D01*
X66923644Y-101440366D01*
X66561720Y-100820094D01*
X66190788Y-100184152D01*
X65815525Y-99540554D01*
X65440611Y-98897315D01*
X65070724Y-98262449D01*
X64710543Y-97643973D01*
X64418733Y-97142670D01*
X64186973Y-96734268D01*
X63987304Y-96361889D01*
X63823747Y-96034279D01*
X63700325Y-95760186D01*
X63621060Y-95548354D01*
X63589977Y-95407530D01*
X61765320Y-95407530D01*
X61768170Y-95533205D01*
X61851399Y-95999770D01*
X62011624Y-96500249D01*
X62069919Y-96647000D01*
X62115576Y-96739816D01*
X62208107Y-96912521D01*
X62343037Y-97157339D01*
X62515889Y-97466492D01*
X62722186Y-97832202D01*
X62957451Y-98246692D01*
X63217208Y-98702184D01*
X63496981Y-99190901D01*
X63792292Y-99705066D01*
X64098666Y-100236900D01*
X64411625Y-100778627D01*
X64726693Y-101322468D01*
X65039394Y-101860647D01*
X65345250Y-102385386D01*
X65639786Y-102888906D01*
X65918524Y-103363432D01*
X66176989Y-103801185D01*
X66410703Y-104194387D01*
X66499701Y-104343200D01*
X66559625Y-104444338D01*
X66665254Y-104623881D01*
X66811118Y-104872466D01*
X66991746Y-105180728D01*
X67201667Y-105539303D01*
X67435412Y-105938826D01*
X67687510Y-106369934D01*
X67952491Y-106823261D01*
X68224883Y-107289444D01*
X68499216Y-107759117D01*
X68770021Y-108222917D01*
X69031826Y-108671479D01*
X69279161Y-109095440D01*
X69506556Y-109485433D01*
X69708540Y-109832096D01*
X69879643Y-110126064D01*
X70014394Y-110357972D01*
X70107322Y-110518456D01*
X70120202Y-110540800D01*
X70240043Y-110747856D01*
X70396459Y-111016501D01*
X70574331Y-111320855D01*
X70758542Y-111635041D01*
X70891788Y-111861600D01*
X71332794Y-112611228D01*
X71723428Y-113277251D01*
X72065698Y-113863122D01*
X72361610Y-114372292D01*
X72613172Y-114808215D01*
X72822391Y-115174344D01*
X72973886Y-115443000D01*
X73371278Y-116120036D01*
X73751655Y-116698796D01*
X74116549Y-117180900D01*
X74467492Y-117567966D01*
X74806015Y-117861613D01*
X75133650Y-118063458D01*
X75451930Y-118175119D01*
X75578833Y-118195085D01*
X75917005Y-118178222D01*
G37*
X75917005Y-118178222D02*
X76265662Y-118061377D01*
X76623784Y-117845512D01*
X76990354Y-117531591D01*
X77364356Y-117120579D01*
X77744771Y-116613439D01*
X78130582Y-116011134D01*
X78418651Y-115505292D01*
X78529755Y-115304119D01*
X78681328Y-115034089D01*
X78862632Y-114714096D01*
X79062929Y-114363033D01*
X79271479Y-113999793D01*
X79450214Y-113690400D01*
X79594226Y-113441933D01*
X79783351Y-113115673D01*
X80011732Y-112721717D01*
X80273516Y-112270164D01*
X80562848Y-111771112D01*
X80873873Y-111234660D01*
X81200736Y-110670905D01*
X81537584Y-110089946D01*
X81878560Y-109501881D01*
X82204015Y-108940600D01*
X82532467Y-108374142D01*
X82854263Y-107819134D01*
X83164562Y-107283923D01*
X83458526Y-106776856D01*
X83731316Y-106306282D01*
X83978093Y-105880547D01*
X84194019Y-105508000D01*
X84374255Y-105196988D01*
X84513962Y-104955859D01*
X84608300Y-104792959D01*
X84618694Y-104775000D01*
X84759459Y-104531953D01*
X84944406Y-104212912D01*
X85166658Y-103829721D01*
X85419339Y-103394225D01*
X85695570Y-102918268D01*
X85988476Y-102413694D01*
X86291178Y-101892347D01*
X86596799Y-101366071D01*
X86898463Y-100846711D01*
X87189291Y-100346110D01*
X87462408Y-99876113D01*
X87710935Y-99448563D01*
X87927995Y-99075306D01*
X88021300Y-98914931D01*
X88407605Y-98236107D01*
X88743799Y-97614002D01*
X89027107Y-97054157D01*
X89254756Y-96562117D01*
X89423971Y-96143425D01*
X89461417Y-96037400D01*
X89549491Y-95718173D01*
X89606664Y-95383978D01*
X89631163Y-95061009D01*
X89621213Y-94775461D01*
X89575038Y-94553527D01*
X89563871Y-94524969D01*
X89386161Y-94233748D01*
X89121594Y-93975134D01*
X88782063Y-93757840D01*
X88379463Y-93590578D01*
X88227250Y-93545838D01*
X88134325Y-93521190D01*
X88046182Y-93498415D01*
X87958685Y-93477442D01*
X87867702Y-93458197D01*
X87769097Y-93440610D01*
X87658736Y-93424608D01*
X87532485Y-93410119D01*
X87386209Y-93397071D01*
X87215773Y-93385392D01*
X87017045Y-93375010D01*
X86785888Y-93365853D01*
X86518169Y-93357849D01*
X86209753Y-93350926D01*
X85856506Y-93345012D01*
X85454294Y-93340034D01*
X84998982Y-93335921D01*
X84486436Y-93332601D01*
X83912520Y-93330002D01*
X83273102Y-93328051D01*
X82564046Y-93326677D01*
X81781219Y-93325807D01*
X80920485Y-93325370D01*
X79977711Y-93325293D01*
X78948761Y-93325504D01*
X77829502Y-93325932D01*
X76615799Y-93326505D01*
X75666600Y-93326973D01*
X74600074Y-93327684D01*
X73558023Y-93328750D01*
X72545198Y-93330150D01*
X71566348Y-93331866D01*
X70626225Y-93333877D01*
X69729577Y-93336164D01*
X68881157Y-93338708D01*
X68085713Y-93341487D01*
X67347996Y-93344484D01*
X66672757Y-93347678D01*
X66064745Y-93351050D01*
X65528711Y-93354580D01*
X65069406Y-93358248D01*
X64691579Y-93362034D01*
X64399980Y-93365920D01*
X64199361Y-93369885D01*
X64094471Y-93373911D01*
X64084200Y-93374866D01*
X63557634Y-93464760D01*
X63085257Y-93590359D01*
X62679208Y-93747173D01*
X62351625Y-93930715D01*
X62162424Y-94085504D01*
X61972545Y-94311796D01*
X61848674Y-94557950D01*
X61779206Y-94852502D01*
X61757901Y-95080278D01*
X61765320Y-95407530D01*
X63589977Y-95407530D01*
X63597782Y-95357777D01*
X63635692Y-95335283D01*
X63730371Y-95308856D01*
X63892636Y-95276345D01*
X64133299Y-95235602D01*
X64463176Y-95184478D01*
X64490600Y-95180348D01*
X64552734Y-95178588D01*
X64711841Y-95176954D01*
X64963291Y-95175447D01*
X65302457Y-95174073D01*
X65724711Y-95172836D01*
X66225424Y-95171740D01*
X66799969Y-95170788D01*
X67443718Y-95169985D01*
X68152042Y-95169335D01*
X68920314Y-95168841D01*
X69743905Y-95168509D01*
X70618187Y-95168341D01*
X71538533Y-95168342D01*
X72500314Y-95168517D01*
X73498903Y-95168868D01*
X74529670Y-95169400D01*
X75587989Y-95170117D01*
X75920600Y-95170378D01*
X77262699Y-95171593D01*
X78506213Y-95173003D01*
X79654156Y-95174625D01*
X80709543Y-95176479D01*
X81675388Y-95178581D01*
X82554706Y-95180951D01*
X83350511Y-95183606D01*
X84065817Y-95186565D01*
X84703640Y-95189846D01*
X85266994Y-95193467D01*
X85758893Y-95197447D01*
X86182352Y-95201803D01*
X86540385Y-95206554D01*
X86836007Y-95211718D01*
X87072233Y-95217313D01*
X87252076Y-95223358D01*
X87378552Y-95229870D01*
X87454674Y-95236869D01*
X87473424Y-95240211D01*
X87621049Y-95279326D01*
X87722352Y-95312225D01*
X87746766Y-95324433D01*
X87747029Y-95391705D01*
X87701000Y-95536863D01*
X87613535Y-95750010D01*
X87489490Y-96021245D01*
X87333721Y-96340670D01*
X87151084Y-96698385D01*
X86946435Y-97084491D01*
X86724631Y-97489089D01*
X86490527Y-97902281D01*
X86435529Y-97997361D01*
X86223448Y-98362682D01*
X85981242Y-98780123D01*
X85729683Y-99213871D01*
X85489541Y-99628114D01*
X85310973Y-99936300D01*
X85028047Y-100424560D01*
X84709279Y-100974337D01*
X84369401Y-101560250D01*
X84023142Y-102156914D01*
X83685232Y-102738946D01*
X83370403Y-103280963D01*
X83122095Y-103708200D01*
X82971704Y-103966962D01*
X82820006Y-104228132D01*
X82684123Y-104462226D01*
X82581173Y-104639759D01*
X82576399Y-104648000D01*
X82459883Y-104848164D01*
X82316958Y-105092289D01*
X82173058Y-105336964D01*
X82129945Y-105410000D01*
X82004950Y-105622777D01*
X81885960Y-105827518D01*
X81791673Y-105991970D01*
X81761858Y-106045000D01*
X81711664Y-106133409D01*
X81616676Y-106298865D01*
X81483136Y-106530564D01*
X81317286Y-106817701D01*
X81125369Y-107149471D01*
X80913625Y-107515072D01*
X80688297Y-107903696D01*
X80631957Y-108000800D01*
X80373763Y-108445800D01*
X80101276Y-108915523D01*
X79825783Y-109390509D01*
X79558569Y-109851298D01*
X79310918Y-110278429D01*
X79094117Y-110652442D01*
X78952749Y-110896400D01*
X78728484Y-111283259D01*
X78479230Y-111712836D01*
X78222604Y-112154794D01*
X77976224Y-112578796D01*
X77757708Y-112954503D01*
X77698976Y-113055400D01*
X77513843Y-113374621D01*
X77331490Y-113691327D01*
X77163115Y-113985901D01*
X77019914Y-114238726D01*
X76913087Y-114430183D01*
X76887048Y-114477800D01*
X76667757Y-114867546D01*
X76442468Y-115241497D01*
X76225243Y-115577454D01*
X76030144Y-115853215D01*
X75953927Y-115951000D01*
X75845500Y-116084916D01*
X75765445Y-116184482D01*
X75732813Y-116225906D01*
X75691075Y-116207517D01*
X75604224Y-116114518D01*
X75481284Y-115958270D01*
X75331281Y-115750137D01*
X75191680Y-115544600D01*
X75118890Y-115434564D01*
X75053078Y-115334027D01*
X74989013Y-115234190D01*
X74921463Y-115126254D01*
X74845197Y-115001422D01*
X74754983Y-114850894D01*
X74645589Y-114665871D01*
X74511785Y-114437555D01*
X74348337Y-114157148D01*
X74150016Y-113815851D01*
X73911589Y-113404864D01*
X73627825Y-112915390D01*
X73605920Y-112877600D01*
X73369907Y-112470755D01*
X73132577Y-112062215D01*
X72902938Y-111667445D01*
X72689995Y-111301910D01*
X72502757Y-110981072D01*
X72350230Y-110720397D01*
X72259628Y-110566200D01*
X72153595Y-110385819D01*
X72003528Y-110129808D01*
X71816538Y-109810329D01*
X71599732Y-109439544D01*
X71360218Y-109029614D01*
X71105106Y-108592699D01*
X70841504Y-108140962D01*
X70611637Y-107746800D01*
X70345031Y-107289688D01*
X70079587Y-106834908D01*
X69822607Y-106394946D01*
X69581392Y-105982288D01*
X69363242Y-105609420D01*
X69175459Y-105288829D01*
X69025344Y-105032999D01*
X68933295Y-104876600D01*
X68811869Y-104670232D01*
X68644006Y-104384074D01*
X68434384Y-104026140D01*
X68187682Y-103604446D01*
X67908578Y-103127007D01*
X67601752Y-102601837D01*
X67271881Y-102036952D01*
X66923644Y-101440366D01*
X66561720Y-100820094D01*
X66190788Y-100184152D01*
X65815525Y-99540554D01*
X65440611Y-98897315D01*
X65070724Y-98262449D01*
X64710543Y-97643973D01*
X64418733Y-97142670D01*
X64186973Y-96734268D01*
X63987304Y-96361889D01*
X63823747Y-96034279D01*
X63700325Y-95760186D01*
X63621060Y-95548354D01*
X63589977Y-95407530D01*
X61765320Y-95407530D01*
X61768170Y-95533205D01*
X61851399Y-95999770D01*
X62011624Y-96500249D01*
X62069919Y-96647000D01*
X62115576Y-96739816D01*
X62208107Y-96912521D01*
X62343037Y-97157339D01*
X62515889Y-97466492D01*
X62722186Y-97832202D01*
X62957451Y-98246692D01*
X63217208Y-98702184D01*
X63496981Y-99190901D01*
X63792292Y-99705066D01*
X64098666Y-100236900D01*
X64411625Y-100778627D01*
X64726693Y-101322468D01*
X65039394Y-101860647D01*
X65345250Y-102385386D01*
X65639786Y-102888906D01*
X65918524Y-103363432D01*
X66176989Y-103801185D01*
X66410703Y-104194387D01*
X66499701Y-104343200D01*
X66559625Y-104444338D01*
X66665254Y-104623881D01*
X66811118Y-104872466D01*
X66991746Y-105180728D01*
X67201667Y-105539303D01*
X67435412Y-105938826D01*
X67687510Y-106369934D01*
X67952491Y-106823261D01*
X68224883Y-107289444D01*
X68499216Y-107759117D01*
X68770021Y-108222917D01*
X69031826Y-108671479D01*
X69279161Y-109095440D01*
X69506556Y-109485433D01*
X69708540Y-109832096D01*
X69879643Y-110126064D01*
X70014394Y-110357972D01*
X70107322Y-110518456D01*
X70120202Y-110540800D01*
X70240043Y-110747856D01*
X70396459Y-111016501D01*
X70574331Y-111320855D01*
X70758542Y-111635041D01*
X70891788Y-111861600D01*
X71332794Y-112611228D01*
X71723428Y-113277251D01*
X72065698Y-113863122D01*
X72361610Y-114372292D01*
X72613172Y-114808215D01*
X72822391Y-115174344D01*
X72973886Y-115443000D01*
X73371278Y-116120036D01*
X73751655Y-116698796D01*
X74116549Y-117180900D01*
X74467492Y-117567966D01*
X74806015Y-117861613D01*
X75133650Y-118063458D01*
X75451930Y-118175119D01*
X75578833Y-118195085D01*
X75917005Y-118178222D01*
G36*
X82355280Y-98065538D02*
G01*
X82436922Y-97967212D01*
X82467736Y-97864467D01*
X82460945Y-97711270D01*
X82459853Y-97701441D01*
X82414532Y-97507960D01*
X82324243Y-97384446D01*
X82313982Y-97376233D01*
X82293095Y-97362838D01*
X82263600Y-97350812D01*
X82220227Y-97340086D01*
X82157710Y-97330588D01*
X82070782Y-97322247D01*
X81954175Y-97314992D01*
X81802621Y-97308753D01*
X81610854Y-97303458D01*
X81373606Y-97299038D01*
X81085609Y-97295420D01*
X80741595Y-97292535D01*
X80336299Y-97290310D01*
X79864452Y-97288676D01*
X79320786Y-97287562D01*
X78700035Y-97286896D01*
X77996931Y-97286607D01*
X77206206Y-97286626D01*
X76322593Y-97286880D01*
X75692000Y-97287141D01*
X74886741Y-97287697D01*
X74109191Y-97288623D01*
X73365440Y-97289892D01*
X72661579Y-97291477D01*
X72003700Y-97293353D01*
X71397894Y-97295491D01*
X70850252Y-97297866D01*
X70366866Y-97300450D01*
X69953826Y-97303216D01*
X69617224Y-97306139D01*
X69363152Y-97309191D01*
X69197700Y-97312344D01*
X69126959Y-97315574D01*
X69125031Y-97316001D01*
X69041859Y-97393056D01*
X68967430Y-97532744D01*
X68919240Y-97696477D01*
X68910200Y-97789787D01*
X68957762Y-97968451D01*
X69034890Y-98071710D01*
X69159581Y-98196400D01*
X82224418Y-98196400D01*
X82355280Y-98065538D01*
G37*
X82355280Y-98065538D02*
X82436922Y-97967212D01*
X82467736Y-97864467D01*
X82460945Y-97711270D01*
X82459853Y-97701441D01*
X82414532Y-97507960D01*
X82324243Y-97384446D01*
X82313982Y-97376233D01*
X82293095Y-97362838D01*
X82263600Y-97350812D01*
X82220227Y-97340086D01*
X82157710Y-97330588D01*
X82070782Y-97322247D01*
X81954175Y-97314992D01*
X81802621Y-97308753D01*
X81610854Y-97303458D01*
X81373606Y-97299038D01*
X81085609Y-97295420D01*
X80741595Y-97292535D01*
X80336299Y-97290310D01*
X79864452Y-97288676D01*
X79320786Y-97287562D01*
X78700035Y-97286896D01*
X77996931Y-97286607D01*
X77206206Y-97286626D01*
X76322593Y-97286880D01*
X75692000Y-97287141D01*
X74886741Y-97287697D01*
X74109191Y-97288623D01*
X73365440Y-97289892D01*
X72661579Y-97291477D01*
X72003700Y-97293353D01*
X71397894Y-97295491D01*
X70850252Y-97297866D01*
X70366866Y-97300450D01*
X69953826Y-97303216D01*
X69617224Y-97306139D01*
X69363152Y-97309191D01*
X69197700Y-97312344D01*
X69126959Y-97315574D01*
X69125031Y-97316001D01*
X69041859Y-97393056D01*
X68967430Y-97532744D01*
X68919240Y-97696477D01*
X68910200Y-97789787D01*
X68957762Y-97968451D01*
X69034890Y-98071710D01*
X69159581Y-98196400D01*
X82224418Y-98196400D01*
X82355280Y-98065538D01*
G36*
X73100779Y-108174570D02*
G01*
X73185065Y-108110350D01*
X73278011Y-108013117D01*
X73329825Y-107912710D01*
X73337741Y-107794273D01*
X73298989Y-107642948D01*
X73210801Y-107443880D01*
X73070410Y-107182212D01*
X72983825Y-107030287D01*
X72743462Y-106596192D01*
X72562301Y-106228546D01*
X72435216Y-105915158D01*
X72357079Y-105643836D01*
X72328769Y-105472465D01*
X72318948Y-105323508D01*
X72332849Y-105196756D01*
X72378925Y-105056980D01*
X72465629Y-104868952D01*
X72481148Y-104837465D01*
X72600816Y-104630302D01*
X72779487Y-104368055D01*
X73004828Y-104067986D01*
X73233558Y-103784400D01*
X73518120Y-103432619D01*
X73737485Y-103135692D01*
X73899702Y-102878066D01*
X74012822Y-102644184D01*
X74084892Y-102418492D01*
X74123963Y-102185434D01*
X74134557Y-102043243D01*
X74129923Y-101745327D01*
X74081672Y-101464463D01*
X73982941Y-101187499D01*
X73826865Y-100901286D01*
X73606579Y-100592674D01*
X73315219Y-100248513D01*
X73047446Y-99960737D01*
X72802121Y-99710548D01*
X72609532Y-99532220D01*
X72456902Y-99419956D01*
X72331452Y-99367962D01*
X72220405Y-99370442D01*
X72110985Y-99421599D01*
X72016632Y-99493174D01*
X71880651Y-99657229D01*
X71823436Y-99840835D01*
X71852611Y-100017420D01*
X71861233Y-100034921D01*
X71919899Y-100117557D01*
X72032485Y-100253820D01*
X72182359Y-100424227D01*
X72339376Y-100594943D01*
X72613003Y-100909848D01*
X72823294Y-101202091D01*
X72921031Y-101374288D01*
X73009407Y-101565630D01*
X73056467Y-101713491D01*
X73071712Y-101862369D01*
X73065134Y-102049146D01*
X73044141Y-102244096D01*
X73002010Y-102423626D01*
X72930047Y-102605367D01*
X72819560Y-102806948D01*
X72661856Y-103046001D01*
X72448244Y-103340155D01*
X72390916Y-103416629D01*
X72020261Y-103933874D01*
X71731288Y-104392527D01*
X71523446Y-104793667D01*
X71396182Y-105138369D01*
X71348945Y-105427710D01*
X71348600Y-105451903D01*
X71377147Y-105720653D01*
X71457723Y-106044949D01*
X71582723Y-106398076D01*
X71683624Y-106629200D01*
X71788856Y-106838857D01*
X71923008Y-107086058D01*
X72073407Y-107349532D01*
X72227383Y-107608005D01*
X72372263Y-107840204D01*
X72495375Y-108024859D01*
X72583873Y-108140500D01*
X72733979Y-108238789D01*
X72913280Y-108249795D01*
X73100779Y-108174570D01*
G37*
X73100779Y-108174570D02*
X73185065Y-108110350D01*
X73278011Y-108013117D01*
X73329825Y-107912710D01*
X73337741Y-107794273D01*
X73298989Y-107642948D01*
X73210801Y-107443880D01*
X73070410Y-107182212D01*
X72983825Y-107030287D01*
X72743462Y-106596192D01*
X72562301Y-106228546D01*
X72435216Y-105915158D01*
X72357079Y-105643836D01*
X72328769Y-105472465D01*
X72318948Y-105323508D01*
X72332849Y-105196756D01*
X72378925Y-105056980D01*
X72465629Y-104868952D01*
X72481148Y-104837465D01*
X72600816Y-104630302D01*
X72779487Y-104368055D01*
X73004828Y-104067986D01*
X73233558Y-103784400D01*
X73518120Y-103432619D01*
X73737485Y-103135692D01*
X73899702Y-102878066D01*
X74012822Y-102644184D01*
X74084892Y-102418492D01*
X74123963Y-102185434D01*
X74134557Y-102043243D01*
X74129923Y-101745327D01*
X74081672Y-101464463D01*
X73982941Y-101187499D01*
X73826865Y-100901286D01*
X73606579Y-100592674D01*
X73315219Y-100248513D01*
X73047446Y-99960737D01*
X72802121Y-99710548D01*
X72609532Y-99532220D01*
X72456902Y-99419956D01*
X72331452Y-99367962D01*
X72220405Y-99370442D01*
X72110985Y-99421599D01*
X72016632Y-99493174D01*
X71880651Y-99657229D01*
X71823436Y-99840835D01*
X71852611Y-100017420D01*
X71861233Y-100034921D01*
X71919899Y-100117557D01*
X72032485Y-100253820D01*
X72182359Y-100424227D01*
X72339376Y-100594943D01*
X72613003Y-100909848D01*
X72823294Y-101202091D01*
X72921031Y-101374288D01*
X73009407Y-101565630D01*
X73056467Y-101713491D01*
X73071712Y-101862369D01*
X73065134Y-102049146D01*
X73044141Y-102244096D01*
X73002010Y-102423626D01*
X72930047Y-102605367D01*
X72819560Y-102806948D01*
X72661856Y-103046001D01*
X72448244Y-103340155D01*
X72390916Y-103416629D01*
X72020261Y-103933874D01*
X71731288Y-104392527D01*
X71523446Y-104793667D01*
X71396182Y-105138369D01*
X71348945Y-105427710D01*
X71348600Y-105451903D01*
X71377147Y-105720653D01*
X71457723Y-106044949D01*
X71582723Y-106398076D01*
X71683624Y-106629200D01*
X71788856Y-106838857D01*
X71923008Y-107086058D01*
X72073407Y-107349532D01*
X72227383Y-107608005D01*
X72372263Y-107840204D01*
X72495375Y-108024859D01*
X72583873Y-108140500D01*
X72733979Y-108238789D01*
X72913280Y-108249795D01*
X73100779Y-108174570D01*
G36*
X75863533Y-108236220D02*
G01*
X76023803Y-108169290D01*
X76150941Y-108052565D01*
X76225411Y-107896007D01*
X76227678Y-107709581D01*
X76200424Y-107619800D01*
X76143752Y-107501952D01*
X76051373Y-107332715D01*
X75942116Y-107146420D01*
X75929249Y-107125339D01*
X75634848Y-106612186D01*
X75419014Y-106160717D01*
X75281043Y-105769069D01*
X75220231Y-105435378D01*
X75221353Y-105252674D01*
X75269148Y-105040135D01*
X75377629Y-104798019D01*
X75552364Y-104516695D01*
X75798923Y-104186532D01*
X75933948Y-104020475D01*
X76236774Y-103650302D01*
X76477565Y-103341130D01*
X76663588Y-103079673D01*
X76802113Y-102852639D01*
X76900409Y-102646739D01*
X76965746Y-102448686D01*
X77005393Y-102245188D01*
X77026620Y-102022958D01*
X77026621Y-102022942D01*
X77017410Y-101698071D01*
X76945645Y-101378443D01*
X76805849Y-101053923D01*
X76592545Y-100714381D01*
X76300257Y-100349682D01*
X75923508Y-99949695D01*
X75885701Y-99912045D01*
X75642526Y-99679199D01*
X75450791Y-99517709D01*
X75297373Y-99420483D01*
X75169145Y-99380431D01*
X75052983Y-99390463D01*
X74976746Y-99420977D01*
X74850393Y-99529657D01*
X74749846Y-99693639D01*
X74702284Y-99866636D01*
X74701400Y-99889906D01*
X74730517Y-99984511D01*
X74821728Y-100124009D01*
X74980824Y-100316436D01*
X75116481Y-100466268D01*
X75420617Y-100809549D01*
X75649905Y-101106322D01*
X75811333Y-101370292D01*
X75911889Y-101615167D01*
X75958557Y-101854651D01*
X75958327Y-102102451D01*
X75957195Y-102115474D01*
X75932397Y-102280239D01*
X75883611Y-102445988D01*
X75803306Y-102626555D01*
X75683953Y-102835773D01*
X75518021Y-103087477D01*
X75297980Y-103395501D01*
X75155824Y-103587687D01*
X74843716Y-104031614D01*
X74592469Y-104443055D01*
X74406142Y-104813857D01*
X74288790Y-105135863D01*
X74244469Y-105400921D01*
X74244200Y-105420225D01*
X74258405Y-105631896D01*
X74294660Y-105869872D01*
X74321767Y-105991256D01*
X74404648Y-106238024D01*
X74537949Y-106547838D01*
X74711939Y-106901862D01*
X74916890Y-107281260D01*
X75143072Y-107667196D01*
X75379274Y-108038605D01*
X75521734Y-108180840D01*
X75689665Y-108243391D01*
X75863533Y-108236220D01*
G37*
X75863533Y-108236220D02*
X76023803Y-108169290D01*
X76150941Y-108052565D01*
X76225411Y-107896007D01*
X76227678Y-107709581D01*
X76200424Y-107619800D01*
X76143752Y-107501952D01*
X76051373Y-107332715D01*
X75942116Y-107146420D01*
X75929249Y-107125339D01*
X75634848Y-106612186D01*
X75419014Y-106160717D01*
X75281043Y-105769069D01*
X75220231Y-105435378D01*
X75221353Y-105252674D01*
X75269148Y-105040135D01*
X75377629Y-104798019D01*
X75552364Y-104516695D01*
X75798923Y-104186532D01*
X75933948Y-104020475D01*
X76236774Y-103650302D01*
X76477565Y-103341130D01*
X76663588Y-103079673D01*
X76802113Y-102852639D01*
X76900409Y-102646739D01*
X76965746Y-102448686D01*
X77005393Y-102245188D01*
X77026620Y-102022958D01*
X77026621Y-102022942D01*
X77017410Y-101698071D01*
X76945645Y-101378443D01*
X76805849Y-101053923D01*
X76592545Y-100714381D01*
X76300257Y-100349682D01*
X75923508Y-99949695D01*
X75885701Y-99912045D01*
X75642526Y-99679199D01*
X75450791Y-99517709D01*
X75297373Y-99420483D01*
X75169145Y-99380431D01*
X75052983Y-99390463D01*
X74976746Y-99420977D01*
X74850393Y-99529657D01*
X74749846Y-99693639D01*
X74702284Y-99866636D01*
X74701400Y-99889906D01*
X74730517Y-99984511D01*
X74821728Y-100124009D01*
X74980824Y-100316436D01*
X75116481Y-100466268D01*
X75420617Y-100809549D01*
X75649905Y-101106322D01*
X75811333Y-101370292D01*
X75911889Y-101615167D01*
X75958557Y-101854651D01*
X75958327Y-102102451D01*
X75957195Y-102115474D01*
X75932397Y-102280239D01*
X75883611Y-102445988D01*
X75803306Y-102626555D01*
X75683953Y-102835773D01*
X75518021Y-103087477D01*
X75297980Y-103395501D01*
X75155824Y-103587687D01*
X74843716Y-104031614D01*
X74592469Y-104443055D01*
X74406142Y-104813857D01*
X74288790Y-105135863D01*
X74244469Y-105400921D01*
X74244200Y-105420225D01*
X74258405Y-105631896D01*
X74294660Y-105869872D01*
X74321767Y-105991256D01*
X74404648Y-106238024D01*
X74537949Y-106547838D01*
X74711939Y-106901862D01*
X74916890Y-107281260D01*
X75143072Y-107667196D01*
X75379274Y-108038605D01*
X75521734Y-108180840D01*
X75689665Y-108243391D01*
X75863533Y-108236220D01*
G36*
X78750173Y-108237287D02*
G01*
X78926648Y-108146954D01*
X78972507Y-108106308D01*
X79059188Y-108004436D01*
X79105721Y-107900170D01*
X79109072Y-107778309D01*
X79066203Y-107623651D01*
X78974078Y-107420995D01*
X78829661Y-107155141D01*
X78757338Y-107029020D01*
X78502044Y-106559724D01*
X78307672Y-106140862D01*
X78176865Y-105779156D01*
X78112264Y-105481326D01*
X78105496Y-105370438D01*
X78120868Y-105199743D01*
X78170270Y-105019059D01*
X78259681Y-104818509D01*
X78395080Y-104588216D01*
X78582445Y-104318301D01*
X78827755Y-103998889D01*
X79136989Y-103620101D01*
X79237865Y-103499653D01*
X79554865Y-103076543D01*
X79775356Y-102672696D01*
X79901136Y-102281725D01*
X79934004Y-101897242D01*
X79875760Y-101512859D01*
X79834958Y-101379418D01*
X79731751Y-101130762D01*
X79588565Y-100878913D01*
X79395194Y-100609765D01*
X79141434Y-100309215D01*
X78817081Y-99963158D01*
X78790800Y-99936179D01*
X78558001Y-99701599D01*
X78379502Y-99534896D01*
X78241416Y-99428629D01*
X78129851Y-99375358D01*
X78030921Y-99367641D01*
X77930736Y-99398039D01*
X77856591Y-99435692D01*
X77703313Y-99574574D01*
X77613647Y-99769923D01*
X77598800Y-99886641D01*
X77617351Y-99974518D01*
X77681700Y-100087351D01*
X77801812Y-100239471D01*
X77986074Y-100443519D01*
X78312883Y-100814140D01*
X78557992Y-101142899D01*
X78726770Y-101440297D01*
X78824584Y-101716837D01*
X78856803Y-101983020D01*
X78848331Y-102130322D01*
X78808128Y-102333076D01*
X78730083Y-102545479D01*
X78606163Y-102782560D01*
X78428335Y-103059345D01*
X78188568Y-103390864D01*
X78140725Y-103454200D01*
X77797566Y-103928392D01*
X77520760Y-104358621D01*
X77314904Y-104737374D01*
X77216061Y-104966294D01*
X77143971Y-105297335D01*
X77154523Y-105677087D01*
X77246725Y-106096576D01*
X77381112Y-106460555D01*
X77476738Y-106664674D01*
X77602140Y-106907430D01*
X77746773Y-107170987D01*
X77900089Y-107437509D01*
X78051545Y-107689160D01*
X78190593Y-107908104D01*
X78306688Y-108076504D01*
X78389284Y-108176526D01*
X78402506Y-108188038D01*
X78564523Y-108252550D01*
X78750173Y-108237287D01*
G37*
X78750173Y-108237287D02*
X78926648Y-108146954D01*
X78972507Y-108106308D01*
X79059188Y-108004436D01*
X79105721Y-107900170D01*
X79109072Y-107778309D01*
X79066203Y-107623651D01*
X78974078Y-107420995D01*
X78829661Y-107155141D01*
X78757338Y-107029020D01*
X78502044Y-106559724D01*
X78307672Y-106140862D01*
X78176865Y-105779156D01*
X78112264Y-105481326D01*
X78105496Y-105370438D01*
X78120868Y-105199743D01*
X78170270Y-105019059D01*
X78259681Y-104818509D01*
X78395080Y-104588216D01*
X78582445Y-104318301D01*
X78827755Y-103998889D01*
X79136989Y-103620101D01*
X79237865Y-103499653D01*
X79554865Y-103076543D01*
X79775356Y-102672696D01*
X79901136Y-102281725D01*
X79934004Y-101897242D01*
X79875760Y-101512859D01*
X79834958Y-101379418D01*
X79731751Y-101130762D01*
X79588565Y-100878913D01*
X79395194Y-100609765D01*
X79141434Y-100309215D01*
X78817081Y-99963158D01*
X78790800Y-99936179D01*
X78558001Y-99701599D01*
X78379502Y-99534896D01*
X78241416Y-99428629D01*
X78129851Y-99375358D01*
X78030921Y-99367641D01*
X77930736Y-99398039D01*
X77856591Y-99435692D01*
X77703313Y-99574574D01*
X77613647Y-99769923D01*
X77598800Y-99886641D01*
X77617351Y-99974518D01*
X77681700Y-100087351D01*
X77801812Y-100239471D01*
X77986074Y-100443519D01*
X78312883Y-100814140D01*
X78557992Y-101142899D01*
X78726770Y-101440297D01*
X78824584Y-101716837D01*
X78856803Y-101983020D01*
X78848331Y-102130322D01*
X78808128Y-102333076D01*
X78730083Y-102545479D01*
X78606163Y-102782560D01*
X78428335Y-103059345D01*
X78188568Y-103390864D01*
X78140725Y-103454200D01*
X77797566Y-103928392D01*
X77520760Y-104358621D01*
X77314904Y-104737374D01*
X77216061Y-104966294D01*
X77143971Y-105297335D01*
X77154523Y-105677087D01*
X77246725Y-106096576D01*
X77381112Y-106460555D01*
X77476738Y-106664674D01*
X77602140Y-106907430D01*
X77746773Y-107170987D01*
X77900089Y-107437509D01*
X78051545Y-107689160D01*
X78190593Y-107908104D01*
X78306688Y-108076504D01*
X78389284Y-108176526D01*
X78402506Y-108188038D01*
X78564523Y-108252550D01*
X78750173Y-108237287D01*
G36*
X77241400Y-106299000D02*
G01*
X77216000Y-106273600D01*
X77190600Y-106299000D01*
X77216000Y-106324400D01*
X77241400Y-106299000D01*
G37*
X77241400Y-106299000D02*
X77216000Y-106273600D01*
X77190600Y-106299000D01*
X77216000Y-106324400D01*
X77241400Y-106299000D01*
G36*
X79121000Y-107213400D02*
G01*
X79095600Y-107188000D01*
X79070200Y-107213400D01*
X79095600Y-107238800D01*
X79121000Y-107213400D01*
G37*
X79121000Y-107213400D02*
X79095600Y-107188000D01*
X79070200Y-107213400D01*
X79095600Y-107238800D01*
X79121000Y-107213400D01*
%TD*%
M02*
