%TF.GenerationSoftware,KiCad,Pcbnew,(5.1.10-1-10_14)*%
%TF.CreationDate,2022-01-16T19:20:25-08:00*%
%TF.ProjectId,Reflow_Heater,5265666c-6f77-45f4-9865-617465722e6b,rev?*%
%TF.SameCoordinates,Original*%
%TF.FileFunction,Legend,Top*%
%TF.FilePolarity,Positive*%
%FSLAX46Y46*%
G04 Gerber Fmt 4.6, Leading zero omitted, Abs format (unit mm)*
G04 Created by KiCad (PCBNEW (5.1.10-1-10_14)) date 2022-01-16 19:20:25*
%MOMM*%
%LPD*%
G01*
G04 APERTURE LIST*
%ADD10C,0.150000*%
%ADD11C,0.750000*%
%ADD12C,0.120000*%
G04 APERTURE END LIST*
D10*
X82666666Y-162222619D02*
X82714285Y-162175000D01*
X82809523Y-162127380D01*
X83047619Y-162127380D01*
X83142857Y-162175000D01*
X83190476Y-162222619D01*
X83238095Y-162317857D01*
X83238095Y-162413095D01*
X83190476Y-162555952D01*
X82619047Y-163127380D01*
X83238095Y-163127380D01*
X84095238Y-162460714D02*
X84095238Y-163127380D01*
X83857142Y-162079761D02*
X83619047Y-162794047D01*
X84238095Y-162794047D01*
X84476190Y-162127380D02*
X84809523Y-163127380D01*
X85142857Y-162127380D01*
X86523809Y-163508333D02*
X86476190Y-163460714D01*
X86380952Y-163317857D01*
X86333333Y-163222619D01*
X86285714Y-163079761D01*
X86238095Y-162841666D01*
X86238095Y-162651190D01*
X86285714Y-162413095D01*
X86333333Y-162270238D01*
X86380952Y-162175000D01*
X86476190Y-162032142D01*
X86523809Y-161984523D01*
X87380952Y-162127380D02*
X86904761Y-162127380D01*
X86857142Y-162603571D01*
X86904761Y-162555952D01*
X87000000Y-162508333D01*
X87238095Y-162508333D01*
X87333333Y-162555952D01*
X87380952Y-162603571D01*
X87428571Y-162698809D01*
X87428571Y-162936904D01*
X87380952Y-163032142D01*
X87333333Y-163079761D01*
X87238095Y-163127380D01*
X87000000Y-163127380D01*
X86904761Y-163079761D01*
X86857142Y-163032142D01*
X87857142Y-163032142D02*
X87904761Y-163079761D01*
X87857142Y-163127380D01*
X87809523Y-163079761D01*
X87857142Y-163032142D01*
X87857142Y-163127380D01*
X88238095Y-162127380D02*
X88857142Y-162127380D01*
X88523809Y-162508333D01*
X88666666Y-162508333D01*
X88761904Y-162555952D01*
X88809523Y-162603571D01*
X88857142Y-162698809D01*
X88857142Y-162936904D01*
X88809523Y-163032142D01*
X88761904Y-163079761D01*
X88666666Y-163127380D01*
X88380952Y-163127380D01*
X88285714Y-163079761D01*
X88238095Y-163032142D01*
X89190476Y-162127380D02*
X89809523Y-162127380D01*
X89476190Y-162508333D01*
X89619047Y-162508333D01*
X89714285Y-162555952D01*
X89761904Y-162603571D01*
X89809523Y-162698809D01*
X89809523Y-162936904D01*
X89761904Y-163032142D01*
X89714285Y-163079761D01*
X89619047Y-163127380D01*
X89333333Y-163127380D01*
X89238095Y-163079761D01*
X89190476Y-163032142D01*
X91190476Y-162127380D02*
X91380952Y-162127380D01*
X91476190Y-162175000D01*
X91571428Y-162270238D01*
X91619047Y-162460714D01*
X91619047Y-162794047D01*
X91571428Y-162984523D01*
X91476190Y-163079761D01*
X91380952Y-163127380D01*
X91190476Y-163127380D01*
X91095238Y-163079761D01*
X91000000Y-162984523D01*
X90952380Y-162794047D01*
X90952380Y-162460714D01*
X91000000Y-162270238D01*
X91095238Y-162175000D01*
X91190476Y-162127380D01*
X92047619Y-163127380D02*
X92047619Y-162127380D01*
X92476190Y-163127380D02*
X92476190Y-162603571D01*
X92428571Y-162508333D01*
X92333333Y-162460714D01*
X92190476Y-162460714D01*
X92095238Y-162508333D01*
X92047619Y-162555952D01*
X92952380Y-163127380D02*
X92952380Y-162460714D01*
X92952380Y-162555952D02*
X93000000Y-162508333D01*
X93095238Y-162460714D01*
X93238095Y-162460714D01*
X93333333Y-162508333D01*
X93380952Y-162603571D01*
X93380952Y-163127380D01*
X93380952Y-162603571D02*
X93428571Y-162508333D01*
X93523809Y-162460714D01*
X93666666Y-162460714D01*
X93761904Y-162508333D01*
X93809523Y-162603571D01*
X93809523Y-163127380D01*
X94238095Y-163079761D02*
X94333333Y-163127380D01*
X94523809Y-163127380D01*
X94619047Y-163079761D01*
X94666666Y-162984523D01*
X94666666Y-162936904D01*
X94619047Y-162841666D01*
X94523809Y-162794047D01*
X94380952Y-162794047D01*
X94285714Y-162746428D01*
X94238095Y-162651190D01*
X94238095Y-162603571D01*
X94285714Y-162508333D01*
X94380952Y-162460714D01*
X94523809Y-162460714D01*
X94619047Y-162508333D01*
X95000000Y-163508333D02*
X95047619Y-163460714D01*
X95142857Y-163317857D01*
X95190476Y-163222619D01*
X95238095Y-163079761D01*
X95285714Y-162841666D01*
X95285714Y-162651190D01*
X95238095Y-162413095D01*
X95190476Y-162270238D01*
X95142857Y-162175000D01*
X95047619Y-162032142D01*
X95000000Y-161984523D01*
X82166666Y-164777380D02*
X81595238Y-164777380D01*
X81880952Y-164777380D02*
X81880952Y-163777380D01*
X81785714Y-163920238D01*
X81690476Y-164015476D01*
X81595238Y-164063095D01*
X82785714Y-163777380D02*
X82880952Y-163777380D01*
X82976190Y-163825000D01*
X83023809Y-163872619D01*
X83071428Y-163967857D01*
X83119047Y-164158333D01*
X83119047Y-164396428D01*
X83071428Y-164586904D01*
X83023809Y-164682142D01*
X82976190Y-164729761D01*
X82880952Y-164777380D01*
X82785714Y-164777380D01*
X82690476Y-164729761D01*
X82642857Y-164682142D01*
X82595238Y-164586904D01*
X82547619Y-164396428D01*
X82547619Y-164158333D01*
X82595238Y-163967857D01*
X82642857Y-163872619D01*
X82690476Y-163825000D01*
X82785714Y-163777380D01*
X83738095Y-163777380D02*
X83833333Y-163777380D01*
X83928571Y-163825000D01*
X83976190Y-163872619D01*
X84023809Y-163967857D01*
X84071428Y-164158333D01*
X84071428Y-164396428D01*
X84023809Y-164586904D01*
X83976190Y-164682142D01*
X83928571Y-164729761D01*
X83833333Y-164777380D01*
X83738095Y-164777380D01*
X83642857Y-164729761D01*
X83595238Y-164682142D01*
X83547619Y-164586904D01*
X83500000Y-164396428D01*
X83500000Y-164158333D01*
X83547619Y-163967857D01*
X83595238Y-163872619D01*
X83642857Y-163825000D01*
X83738095Y-163777380D01*
X84404761Y-163777380D02*
X84642857Y-164777380D01*
X84833333Y-164063095D01*
X85023809Y-164777380D01*
X85261904Y-163777380D01*
X85690476Y-164729761D02*
X85690476Y-164777380D01*
X85642857Y-164872619D01*
X85595238Y-164920238D01*
X87023809Y-164205952D02*
X86928571Y-164158333D01*
X86880952Y-164110714D01*
X86833333Y-164015476D01*
X86833333Y-163967857D01*
X86880952Y-163872619D01*
X86928571Y-163825000D01*
X87023809Y-163777380D01*
X87214285Y-163777380D01*
X87309523Y-163825000D01*
X87357142Y-163872619D01*
X87404761Y-163967857D01*
X87404761Y-164015476D01*
X87357142Y-164110714D01*
X87309523Y-164158333D01*
X87214285Y-164205952D01*
X87023809Y-164205952D01*
X86928571Y-164253571D01*
X86880952Y-164301190D01*
X86833333Y-164396428D01*
X86833333Y-164586904D01*
X86880952Y-164682142D01*
X86928571Y-164729761D01*
X87023809Y-164777380D01*
X87214285Y-164777380D01*
X87309523Y-164729761D01*
X87357142Y-164682142D01*
X87404761Y-164586904D01*
X87404761Y-164396428D01*
X87357142Y-164301190D01*
X87309523Y-164253571D01*
X87214285Y-164205952D01*
X88023809Y-163777380D02*
X88119047Y-163777380D01*
X88214285Y-163825000D01*
X88261904Y-163872619D01*
X88309523Y-163967857D01*
X88357142Y-164158333D01*
X88357142Y-164396428D01*
X88309523Y-164586904D01*
X88261904Y-164682142D01*
X88214285Y-164729761D01*
X88119047Y-164777380D01*
X88023809Y-164777380D01*
X87928571Y-164729761D01*
X87880952Y-164682142D01*
X87833333Y-164586904D01*
X87785714Y-164396428D01*
X87785714Y-164158333D01*
X87833333Y-163967857D01*
X87880952Y-163872619D01*
X87928571Y-163825000D01*
X88023809Y-163777380D01*
X88785714Y-164777380D02*
X88785714Y-164110714D01*
X88785714Y-164205952D02*
X88833333Y-164158333D01*
X88928571Y-164110714D01*
X89071428Y-164110714D01*
X89166666Y-164158333D01*
X89214285Y-164253571D01*
X89214285Y-164777380D01*
X89214285Y-164253571D02*
X89261904Y-164158333D01*
X89357142Y-164110714D01*
X89500000Y-164110714D01*
X89595238Y-164158333D01*
X89642857Y-164253571D01*
X89642857Y-164777380D01*
X90119047Y-164777380D02*
X90119047Y-164110714D01*
X90119047Y-164205952D02*
X90166666Y-164158333D01*
X90261904Y-164110714D01*
X90404761Y-164110714D01*
X90500000Y-164158333D01*
X90547619Y-164253571D01*
X90547619Y-164777380D01*
X90547619Y-164253571D02*
X90595238Y-164158333D01*
X90690476Y-164110714D01*
X90833333Y-164110714D01*
X90928571Y-164158333D01*
X90976190Y-164253571D01*
X90976190Y-164777380D01*
X91357142Y-164777380D02*
X91880952Y-164110714D01*
X91357142Y-164110714D02*
X91880952Y-164777380D01*
X92738095Y-163777380D02*
X92261904Y-163777380D01*
X92214285Y-164253571D01*
X92261904Y-164205952D01*
X92357142Y-164158333D01*
X92595238Y-164158333D01*
X92690476Y-164205952D01*
X92738095Y-164253571D01*
X92785714Y-164348809D01*
X92785714Y-164586904D01*
X92738095Y-164682142D01*
X92690476Y-164729761D01*
X92595238Y-164777380D01*
X92357142Y-164777380D01*
X92261904Y-164729761D01*
X92214285Y-164682142D01*
X93404761Y-163777380D02*
X93500000Y-163777380D01*
X93595238Y-163825000D01*
X93642857Y-163872619D01*
X93690476Y-163967857D01*
X93738095Y-164158333D01*
X93738095Y-164396428D01*
X93690476Y-164586904D01*
X93642857Y-164682142D01*
X93595238Y-164729761D01*
X93500000Y-164777380D01*
X93404761Y-164777380D01*
X93309523Y-164729761D01*
X93261904Y-164682142D01*
X93214285Y-164586904D01*
X93166666Y-164396428D01*
X93166666Y-164158333D01*
X93214285Y-163967857D01*
X93261904Y-163872619D01*
X93309523Y-163825000D01*
X93404761Y-163777380D01*
X94166666Y-164777380D02*
X94166666Y-164110714D01*
X94166666Y-164205952D02*
X94214285Y-164158333D01*
X94309523Y-164110714D01*
X94452380Y-164110714D01*
X94547619Y-164158333D01*
X94595238Y-164253571D01*
X94595238Y-164777380D01*
X94595238Y-164253571D02*
X94642857Y-164158333D01*
X94738095Y-164110714D01*
X94880952Y-164110714D01*
X94976190Y-164158333D01*
X95023809Y-164253571D01*
X95023809Y-164777380D01*
X95500000Y-164777380D02*
X95500000Y-164110714D01*
X95500000Y-164205952D02*
X95547619Y-164158333D01*
X95642857Y-164110714D01*
X95785714Y-164110714D01*
X95880952Y-164158333D01*
X95928571Y-164253571D01*
X95928571Y-164777380D01*
X95928571Y-164253571D02*
X95976190Y-164158333D01*
X96071428Y-164110714D01*
X96214285Y-164110714D01*
X96309523Y-164158333D01*
X96357142Y-164253571D01*
X96357142Y-164777380D01*
X57761904Y-164452380D02*
X57761904Y-163452380D01*
X58238095Y-164452380D02*
X58238095Y-163452380D01*
X58571428Y-163452380D02*
X59142857Y-163452380D01*
X58857142Y-164452380D02*
X58857142Y-163452380D01*
X60047619Y-164357142D02*
X60000000Y-164404761D01*
X59857142Y-164452380D01*
X59761904Y-164452380D01*
X59619047Y-164404761D01*
X59523809Y-164309523D01*
X59476190Y-164214285D01*
X59428571Y-164023809D01*
X59428571Y-163880952D01*
X59476190Y-163690476D01*
X59523809Y-163595238D01*
X59619047Y-163500000D01*
X59761904Y-163452380D01*
X59857142Y-163452380D01*
X60000000Y-163500000D01*
X60047619Y-163547619D01*
X61809523Y-164452380D02*
X61476190Y-163976190D01*
X61238095Y-164452380D02*
X61238095Y-163452380D01*
X61619047Y-163452380D01*
X61714285Y-163500000D01*
X61761904Y-163547619D01*
X61809523Y-163642857D01*
X61809523Y-163785714D01*
X61761904Y-163880952D01*
X61714285Y-163928571D01*
X61619047Y-163976190D01*
X61238095Y-163976190D01*
X62619047Y-164404761D02*
X62523809Y-164452380D01*
X62333333Y-164452380D01*
X62238095Y-164404761D01*
X62190476Y-164309523D01*
X62190476Y-163928571D01*
X62238095Y-163833333D01*
X62333333Y-163785714D01*
X62523809Y-163785714D01*
X62619047Y-163833333D01*
X62666666Y-163928571D01*
X62666666Y-164023809D01*
X62190476Y-164119047D01*
X62952380Y-163785714D02*
X63333333Y-163785714D01*
X63095238Y-164452380D02*
X63095238Y-163595238D01*
X63142857Y-163500000D01*
X63238095Y-163452380D01*
X63333333Y-163452380D01*
X63809523Y-164452380D02*
X63714285Y-164404761D01*
X63666666Y-164309523D01*
X63666666Y-163452380D01*
X64333333Y-164452380D02*
X64238095Y-164404761D01*
X64190476Y-164357142D01*
X64142857Y-164261904D01*
X64142857Y-163976190D01*
X64190476Y-163880952D01*
X64238095Y-163833333D01*
X64333333Y-163785714D01*
X64476190Y-163785714D01*
X64571428Y-163833333D01*
X64619047Y-163880952D01*
X64666666Y-163976190D01*
X64666666Y-164261904D01*
X64619047Y-164357142D01*
X64571428Y-164404761D01*
X64476190Y-164452380D01*
X64333333Y-164452380D01*
X65000000Y-163785714D02*
X65190476Y-164452380D01*
X65380952Y-163976190D01*
X65571428Y-164452380D01*
X65761904Y-163785714D01*
X66904761Y-164452380D02*
X66904761Y-163452380D01*
X67285714Y-163452380D01*
X67380952Y-163500000D01*
X67428571Y-163547619D01*
X67476190Y-163642857D01*
X67476190Y-163785714D01*
X67428571Y-163880952D01*
X67380952Y-163928571D01*
X67285714Y-163976190D01*
X66904761Y-163976190D01*
X68047619Y-164452380D02*
X67952380Y-164404761D01*
X67904761Y-164309523D01*
X67904761Y-163452380D01*
X68857142Y-164452380D02*
X68857142Y-163928571D01*
X68809523Y-163833333D01*
X68714285Y-163785714D01*
X68523809Y-163785714D01*
X68428571Y-163833333D01*
X68857142Y-164404761D02*
X68761904Y-164452380D01*
X68523809Y-164452380D01*
X68428571Y-164404761D01*
X68380952Y-164309523D01*
X68380952Y-164214285D01*
X68428571Y-164119047D01*
X68523809Y-164071428D01*
X68761904Y-164071428D01*
X68857142Y-164023809D01*
X69190476Y-163785714D02*
X69571428Y-163785714D01*
X69333333Y-163452380D02*
X69333333Y-164309523D01*
X69380952Y-164404761D01*
X69476190Y-164452380D01*
X69571428Y-164452380D01*
X70285714Y-164404761D02*
X70190476Y-164452380D01*
X70000000Y-164452380D01*
X69904761Y-164404761D01*
X69857142Y-164309523D01*
X69857142Y-163928571D01*
X69904761Y-163833333D01*
X70000000Y-163785714D01*
X70190476Y-163785714D01*
X70285714Y-163833333D01*
X70333333Y-163928571D01*
X70333333Y-164023809D01*
X69857142Y-164119047D01*
X72904761Y-163452380D02*
X73238095Y-164452380D01*
X73571428Y-163452380D01*
X74428571Y-164452380D02*
X73857142Y-164452380D01*
X74142857Y-164452380D02*
X74142857Y-163452380D01*
X74047619Y-163595238D01*
X73952380Y-163690476D01*
X73857142Y-163738095D01*
X74857142Y-164357142D02*
X74904761Y-164404761D01*
X74857142Y-164452380D01*
X74809523Y-164404761D01*
X74857142Y-164357142D01*
X74857142Y-164452380D01*
X75523809Y-163452380D02*
X75619047Y-163452380D01*
X75714285Y-163500000D01*
X75761904Y-163547619D01*
X75809523Y-163642857D01*
X75857142Y-163833333D01*
X75857142Y-164071428D01*
X75809523Y-164261904D01*
X75761904Y-164357142D01*
X75714285Y-164404761D01*
X75619047Y-164452380D01*
X75523809Y-164452380D01*
X75428571Y-164404761D01*
X75380952Y-164357142D01*
X75333333Y-164261904D01*
X75285714Y-164071428D01*
X75285714Y-163833333D01*
X75333333Y-163642857D01*
X75380952Y-163547619D01*
X75428571Y-163500000D01*
X75523809Y-163452380D01*
X76285714Y-164357142D02*
X76333333Y-164404761D01*
X76285714Y-164452380D01*
X76238095Y-164404761D01*
X76285714Y-164357142D01*
X76285714Y-164452380D01*
X77285714Y-164452380D02*
X76714285Y-164452380D01*
X77000000Y-164452380D02*
X77000000Y-163452380D01*
X76904761Y-163595238D01*
X76809523Y-163690476D01*
X76714285Y-163738095D01*
D11*
X85892857Y-86142857D02*
X86107142Y-85928571D01*
X86750000Y-85714285D01*
X87178571Y-85714285D01*
X87821428Y-85928571D01*
X88250000Y-86357142D01*
X88464285Y-86785714D01*
X88678571Y-87642857D01*
X88678571Y-88285714D01*
X88464285Y-89142857D01*
X88250000Y-89571428D01*
X87821428Y-90000000D01*
X87178571Y-90214285D01*
X86750000Y-90214285D01*
X86107142Y-90000000D01*
X85892857Y-89785714D01*
X84178571Y-87000000D02*
X82035714Y-87000000D01*
X84607142Y-85714285D02*
X83107142Y-90214285D01*
X81607142Y-85714285D01*
X80107142Y-90214285D02*
X80107142Y-86571428D01*
X79892857Y-86142857D01*
X79678571Y-85928571D01*
X79250000Y-85714285D01*
X78392857Y-85714285D01*
X77964285Y-85928571D01*
X77750000Y-86142857D01*
X77535714Y-86571428D01*
X77535714Y-90214285D01*
X76035714Y-90214285D02*
X73464285Y-90214285D01*
X74750000Y-85714285D02*
X74750000Y-90214285D01*
X71964285Y-85714285D02*
X71964285Y-90214285D01*
X68964285Y-90214285D02*
X68107142Y-90214285D01*
X67678571Y-90000000D01*
X67250000Y-89571428D01*
X67035714Y-88714285D01*
X67035714Y-87214285D01*
X67250000Y-86357142D01*
X67678571Y-85928571D01*
X68107142Y-85714285D01*
X68964285Y-85714285D01*
X69392857Y-85928571D01*
X69821428Y-86357142D01*
X70035714Y-87214285D01*
X70035714Y-88714285D01*
X69821428Y-89571428D01*
X69392857Y-90000000D01*
X68964285Y-90214285D01*
X65107142Y-85714285D02*
X65107142Y-90214285D01*
X62535714Y-85714285D01*
X62535714Y-90214285D01*
X97464285Y-78214285D02*
X97464285Y-82714285D01*
X97464285Y-80571428D02*
X94892857Y-80571428D01*
X94892857Y-78214285D02*
X94892857Y-82714285D01*
X91892857Y-82714285D02*
X91035714Y-82714285D01*
X90607142Y-82500000D01*
X90178571Y-82071428D01*
X89964285Y-81214285D01*
X89964285Y-79714285D01*
X90178571Y-78857142D01*
X90607142Y-78428571D01*
X91035714Y-78214285D01*
X91892857Y-78214285D01*
X92321428Y-78428571D01*
X92750000Y-78857142D01*
X92964285Y-79714285D01*
X92964285Y-81214285D01*
X92750000Y-82071428D01*
X92321428Y-82500000D01*
X91892857Y-82714285D01*
X88678571Y-82714285D02*
X86107142Y-82714285D01*
X87392857Y-78214285D02*
X87392857Y-82714285D01*
X81392857Y-78428571D02*
X80750000Y-78214285D01*
X79678571Y-78214285D01*
X79250000Y-78428571D01*
X79035714Y-78642857D01*
X78821428Y-79071428D01*
X78821428Y-79500000D01*
X79035714Y-79928571D01*
X79250000Y-80142857D01*
X79678571Y-80357142D01*
X80535714Y-80571428D01*
X80964285Y-80785714D01*
X81178571Y-81000000D01*
X81392857Y-81428571D01*
X81392857Y-81857142D01*
X81178571Y-82285714D01*
X80964285Y-82500000D01*
X80535714Y-82714285D01*
X79464285Y-82714285D01*
X78821428Y-82500000D01*
X76892857Y-82714285D02*
X76892857Y-79071428D01*
X76678571Y-78642857D01*
X76464285Y-78428571D01*
X76035714Y-78214285D01*
X75178571Y-78214285D01*
X74750000Y-78428571D01*
X74535714Y-78642857D01*
X74321428Y-79071428D01*
X74321428Y-82714285D01*
X69607142Y-78214285D02*
X71107142Y-80357142D01*
X72178571Y-78214285D02*
X72178571Y-82714285D01*
X70464285Y-82714285D01*
X70035714Y-82500000D01*
X69821428Y-82285714D01*
X69607142Y-81857142D01*
X69607142Y-81214285D01*
X69821428Y-80785714D01*
X70035714Y-80571428D01*
X70464285Y-80357142D01*
X72178571Y-80357142D01*
X66178571Y-80571428D02*
X67678571Y-80571428D01*
X67678571Y-78214285D02*
X67678571Y-82714285D01*
X65535714Y-82714285D01*
X64035714Y-79500000D02*
X61892857Y-79500000D01*
X64464285Y-78214285D02*
X62964285Y-82714285D01*
X61464285Y-78214285D01*
X57392857Y-78642857D02*
X57607142Y-78428571D01*
X58250000Y-78214285D01*
X58678571Y-78214285D01*
X59321428Y-78428571D01*
X59750000Y-78857142D01*
X59964285Y-79285714D01*
X60178571Y-80142857D01*
X60178571Y-80785714D01*
X59964285Y-81642857D01*
X59750000Y-82071428D01*
X59321428Y-82500000D01*
X58678571Y-82714285D01*
X58250000Y-82714285D01*
X57607142Y-82500000D01*
X57392857Y-82285714D01*
X55464285Y-80571428D02*
X53964285Y-80571428D01*
X53321428Y-78214285D02*
X55464285Y-78214285D01*
X55464285Y-82714285D01*
X53321428Y-82714285D01*
X65107142Y-142357142D02*
X64892857Y-142571428D01*
X64250000Y-142785714D01*
X63821428Y-142785714D01*
X63178571Y-142571428D01*
X62750000Y-142142857D01*
X62535714Y-141714285D01*
X62321428Y-140857142D01*
X62321428Y-140214285D01*
X62535714Y-139357142D01*
X62750000Y-138928571D01*
X63178571Y-138500000D01*
X63821428Y-138285714D01*
X64250000Y-138285714D01*
X64892857Y-138500000D01*
X65107142Y-138714285D01*
X66821428Y-141500000D02*
X68964285Y-141500000D01*
X66392857Y-142785714D02*
X67892857Y-138285714D01*
X69392857Y-142785714D01*
X70892857Y-138285714D02*
X70892857Y-141928571D01*
X71107142Y-142357142D01*
X71321428Y-142571428D01*
X71750000Y-142785714D01*
X72607142Y-142785714D01*
X73035714Y-142571428D01*
X73250000Y-142357142D01*
X73464285Y-141928571D01*
X73464285Y-138285714D01*
X74964285Y-138285714D02*
X77535714Y-138285714D01*
X76250000Y-142785714D02*
X76250000Y-138285714D01*
X79035714Y-142785714D02*
X79035714Y-138285714D01*
X82035714Y-138285714D02*
X82892857Y-138285714D01*
X83321428Y-138500000D01*
X83750000Y-138928571D01*
X83964285Y-139785714D01*
X83964285Y-141285714D01*
X83750000Y-142142857D01*
X83321428Y-142571428D01*
X82892857Y-142785714D01*
X82035714Y-142785714D01*
X81607142Y-142571428D01*
X81178571Y-142142857D01*
X80964285Y-141285714D01*
X80964285Y-139785714D01*
X81178571Y-138928571D01*
X81607142Y-138500000D01*
X82035714Y-138285714D01*
X85892857Y-142785714D02*
X85892857Y-138285714D01*
X88464285Y-142785714D01*
X88464285Y-138285714D01*
X53535714Y-150285714D02*
X53535714Y-145785714D01*
X53535714Y-147928571D02*
X56107142Y-147928571D01*
X56107142Y-150285714D02*
X56107142Y-145785714D01*
X59107142Y-145785714D02*
X59964285Y-145785714D01*
X60392857Y-146000000D01*
X60821428Y-146428571D01*
X61035714Y-147285714D01*
X61035714Y-148785714D01*
X60821428Y-149642857D01*
X60392857Y-150071428D01*
X59964285Y-150285714D01*
X59107142Y-150285714D01*
X58678571Y-150071428D01*
X58250000Y-149642857D01*
X58035714Y-148785714D01*
X58035714Y-147285714D01*
X58250000Y-146428571D01*
X58678571Y-146000000D01*
X59107142Y-145785714D01*
X62321428Y-145785714D02*
X64892857Y-145785714D01*
X63607142Y-150285714D02*
X63607142Y-145785714D01*
X69607142Y-150071428D02*
X70250000Y-150285714D01*
X71321428Y-150285714D01*
X71750000Y-150071428D01*
X71964285Y-149857142D01*
X72178571Y-149428571D01*
X72178571Y-149000000D01*
X71964285Y-148571428D01*
X71750000Y-148357142D01*
X71321428Y-148142857D01*
X70464285Y-147928571D01*
X70035714Y-147714285D01*
X69821428Y-147500000D01*
X69607142Y-147071428D01*
X69607142Y-146642857D01*
X69821428Y-146214285D01*
X70035714Y-146000000D01*
X70464285Y-145785714D01*
X71535714Y-145785714D01*
X72178571Y-146000000D01*
X74107142Y-145785714D02*
X74107142Y-149428571D01*
X74321428Y-149857142D01*
X74535714Y-150071428D01*
X74964285Y-150285714D01*
X75821428Y-150285714D01*
X76250000Y-150071428D01*
X76464285Y-149857142D01*
X76678571Y-149428571D01*
X76678571Y-145785714D01*
X81392857Y-150285714D02*
X79892857Y-148142857D01*
X78821428Y-150285714D02*
X78821428Y-145785714D01*
X80535714Y-145785714D01*
X80964285Y-146000000D01*
X81178571Y-146214285D01*
X81392857Y-146642857D01*
X81392857Y-147285714D01*
X81178571Y-147714285D01*
X80964285Y-147928571D01*
X80535714Y-148142857D01*
X78821428Y-148142857D01*
X84821428Y-147928571D02*
X83321428Y-147928571D01*
X83321428Y-150285714D02*
X83321428Y-145785714D01*
X85464285Y-145785714D01*
X86964285Y-149000000D02*
X89107142Y-149000000D01*
X86535714Y-150285714D02*
X88035714Y-145785714D01*
X89535714Y-150285714D01*
X93607142Y-149857142D02*
X93392857Y-150071428D01*
X92750000Y-150285714D01*
X92321428Y-150285714D01*
X91678571Y-150071428D01*
X91250000Y-149642857D01*
X91035714Y-149214285D01*
X90821428Y-148357142D01*
X90821428Y-147714285D01*
X91035714Y-146857142D01*
X91250000Y-146428571D01*
X91678571Y-146000000D01*
X92321428Y-145785714D01*
X92750000Y-145785714D01*
X93392857Y-146000000D01*
X93607142Y-146214285D01*
X95535714Y-147928571D02*
X97035714Y-147928571D01*
X97678571Y-150285714D02*
X95535714Y-150285714D01*
X95535714Y-145785714D01*
X97678571Y-145785714D01*
D10*
X79642857Y-157127380D02*
X80214285Y-157127380D01*
X79928571Y-158127380D02*
X79928571Y-157127380D01*
X80547619Y-158127380D02*
X80547619Y-157127380D01*
X80976190Y-158127380D02*
X80976190Y-157603571D01*
X80928571Y-157508333D01*
X80833333Y-157460714D01*
X80690476Y-157460714D01*
X80595238Y-157508333D01*
X80547619Y-157555952D01*
X81833333Y-158079761D02*
X81738095Y-158127380D01*
X81547619Y-158127380D01*
X81452380Y-158079761D01*
X81404761Y-157984523D01*
X81404761Y-157603571D01*
X81452380Y-157508333D01*
X81547619Y-157460714D01*
X81738095Y-157460714D01*
X81833333Y-157508333D01*
X81880952Y-157603571D01*
X81880952Y-157698809D01*
X81404761Y-157794047D01*
X82309523Y-158127380D02*
X82309523Y-157460714D01*
X82309523Y-157651190D02*
X82357142Y-157555952D01*
X82404761Y-157508333D01*
X82500000Y-157460714D01*
X82595238Y-157460714D01*
X82928571Y-158127380D02*
X82928571Y-157460714D01*
X82928571Y-157555952D02*
X82976190Y-157508333D01*
X83071428Y-157460714D01*
X83214285Y-157460714D01*
X83309523Y-157508333D01*
X83357142Y-157603571D01*
X83357142Y-158127380D01*
X83357142Y-157603571D02*
X83404761Y-157508333D01*
X83500000Y-157460714D01*
X83642857Y-157460714D01*
X83738095Y-157508333D01*
X83785714Y-157603571D01*
X83785714Y-158127380D01*
X84690476Y-158127380D02*
X84690476Y-157603571D01*
X84642857Y-157508333D01*
X84547619Y-157460714D01*
X84357142Y-157460714D01*
X84261904Y-157508333D01*
X84690476Y-158079761D02*
X84595238Y-158127380D01*
X84357142Y-158127380D01*
X84261904Y-158079761D01*
X84214285Y-157984523D01*
X84214285Y-157889285D01*
X84261904Y-157794047D01*
X84357142Y-157746428D01*
X84595238Y-157746428D01*
X84690476Y-157698809D01*
X85309523Y-158127380D02*
X85214285Y-158079761D01*
X85166666Y-157984523D01*
X85166666Y-157127380D01*
X81357142Y-159253571D02*
X81023809Y-159253571D01*
X81023809Y-159777380D02*
X81023809Y-158777380D01*
X81500000Y-158777380D01*
X82309523Y-159110714D02*
X82309523Y-159777380D01*
X81880952Y-159110714D02*
X81880952Y-159634523D01*
X81928571Y-159729761D01*
X82023809Y-159777380D01*
X82166666Y-159777380D01*
X82261904Y-159729761D01*
X82309523Y-159682142D01*
X82738095Y-159729761D02*
X82833333Y-159777380D01*
X83023809Y-159777380D01*
X83119047Y-159729761D01*
X83166666Y-159634523D01*
X83166666Y-159586904D01*
X83119047Y-159491666D01*
X83023809Y-159444047D01*
X82880952Y-159444047D01*
X82785714Y-159396428D01*
X82738095Y-159301190D01*
X82738095Y-159253571D01*
X82785714Y-159158333D01*
X82880952Y-159110714D01*
X83023809Y-159110714D01*
X83119047Y-159158333D01*
X83976190Y-159729761D02*
X83880952Y-159777380D01*
X83690476Y-159777380D01*
X83595238Y-159729761D01*
X83547619Y-159634523D01*
X83547619Y-159253571D01*
X83595238Y-159158333D01*
X83690476Y-159110714D01*
X83880952Y-159110714D01*
X83976190Y-159158333D01*
X84023809Y-159253571D01*
X84023809Y-159348809D01*
X83547619Y-159444047D01*
D12*
X100000000Y-76000000D02*
X51000000Y-76000000D01*
X51000000Y-154000000D02*
X51000000Y-76000000D01*
X100000000Y-154000000D02*
X51000000Y-154000000D01*
X100000000Y-76000000D02*
X100000000Y-154000000D01*
%TO.C,MH5*%
D10*
X84666666Y-156252380D02*
X84666666Y-155252380D01*
X85000000Y-155966666D01*
X85333333Y-155252380D01*
X85333333Y-156252380D01*
X85809523Y-156252380D02*
X85809523Y-155252380D01*
X85809523Y-155728571D02*
X86380952Y-155728571D01*
X86380952Y-156252380D02*
X86380952Y-155252380D01*
X87333333Y-155252380D02*
X86857142Y-155252380D01*
X86809523Y-155728571D01*
X86857142Y-155680952D01*
X86952380Y-155633333D01*
X87190476Y-155633333D01*
X87285714Y-155680952D01*
X87333333Y-155728571D01*
X87380952Y-155823809D01*
X87380952Y-156061904D01*
X87333333Y-156157142D01*
X87285714Y-156204761D01*
X87190476Y-156252380D01*
X86952380Y-156252380D01*
X86857142Y-156204761D01*
X86809523Y-156157142D01*
%TO.C,MH4*%
X94666666Y-156252380D02*
X94666666Y-155252380D01*
X95000000Y-155966666D01*
X95333333Y-155252380D01*
X95333333Y-156252380D01*
X95809523Y-156252380D02*
X95809523Y-155252380D01*
X95809523Y-155728571D02*
X96380952Y-155728571D01*
X96380952Y-156252380D02*
X96380952Y-155252380D01*
X97285714Y-155585714D02*
X97285714Y-156252380D01*
X97047619Y-155204761D02*
X96809523Y-155919047D01*
X97428571Y-155919047D01*
%TO.C,MH3*%
X94666666Y-74952380D02*
X94666666Y-73952380D01*
X95000000Y-74666666D01*
X95333333Y-73952380D01*
X95333333Y-74952380D01*
X95809523Y-74952380D02*
X95809523Y-73952380D01*
X95809523Y-74428571D02*
X96380952Y-74428571D01*
X96380952Y-74952380D02*
X96380952Y-73952380D01*
X96761904Y-73952380D02*
X97380952Y-73952380D01*
X97047619Y-74333333D01*
X97190476Y-74333333D01*
X97285714Y-74380952D01*
X97333333Y-74428571D01*
X97380952Y-74523809D01*
X97380952Y-74761904D01*
X97333333Y-74857142D01*
X97285714Y-74904761D01*
X97190476Y-74952380D01*
X96904761Y-74952380D01*
X96809523Y-74904761D01*
X96761904Y-74857142D01*
%TO.C,MH2*%
X53666666Y-74952380D02*
X53666666Y-73952380D01*
X54000000Y-74666666D01*
X54333333Y-73952380D01*
X54333333Y-74952380D01*
X54809523Y-74952380D02*
X54809523Y-73952380D01*
X54809523Y-74428571D02*
X55380952Y-74428571D01*
X55380952Y-74952380D02*
X55380952Y-73952380D01*
X55809523Y-74047619D02*
X55857142Y-74000000D01*
X55952380Y-73952380D01*
X56190476Y-73952380D01*
X56285714Y-74000000D01*
X56333333Y-74047619D01*
X56380952Y-74142857D01*
X56380952Y-74238095D01*
X56333333Y-74380952D01*
X55761904Y-74952380D01*
X56380952Y-74952380D01*
%TO.C,MH1*%
X53666666Y-156252380D02*
X53666666Y-155252380D01*
X54000000Y-155966666D01*
X54333333Y-155252380D01*
X54333333Y-156252380D01*
X54809523Y-156252380D02*
X54809523Y-155252380D01*
X54809523Y-155728571D02*
X55380952Y-155728571D01*
X55380952Y-156252380D02*
X55380952Y-155252380D01*
X56380952Y-156252380D02*
X55809523Y-156252380D01*
X56095238Y-156252380D02*
X56095238Y-155252380D01*
X56000000Y-155395238D01*
X55904761Y-155490476D01*
X55809523Y-155538095D01*
%TO.C,J2*%
X74666666Y-155252380D02*
X74666666Y-155966666D01*
X74619047Y-156109523D01*
X74523809Y-156204761D01*
X74380952Y-156252380D01*
X74285714Y-156252380D01*
X75095238Y-155347619D02*
X75142857Y-155300000D01*
X75238095Y-155252380D01*
X75476190Y-155252380D01*
X75571428Y-155300000D01*
X75619047Y-155347619D01*
X75666666Y-155442857D01*
X75666666Y-155538095D01*
X75619047Y-155680952D01*
X75047619Y-156252380D01*
X75666666Y-156252380D01*
%TO.C,J1*%
X64666666Y-155252380D02*
X64666666Y-155966666D01*
X64619047Y-156109523D01*
X64523809Y-156204761D01*
X64380952Y-156252380D01*
X64285714Y-156252380D01*
X65666666Y-156252380D02*
X65095238Y-156252380D01*
X65380952Y-156252380D02*
X65380952Y-155252380D01*
X65285714Y-155395238D01*
X65190476Y-155490476D01*
X65095238Y-155538095D01*
%TD*%
M02*
